{"glyphs":{"0":{"ha":791,"x_min":60,"x_max":731,"o":"m 60 509 q 395 1017 60 1017 q 731 509 731 1017 q 395 0 731 0 q 60 509 60 0 m 629 509 q 395 916 629 916 q 161 509 161 916 q 395 102 161 102 q 629 509 629 102 z "},"1":{"ha":646,"x_min":153,"x_max":533,"o":"m 292 795 l 153 795 l 153 859 q 317 1017 297 859 l 394 1017 l 394 102 l 533 102 l 533 0 l 153 0 l 153 102 l 292 102 l 292 795 z "},"2":{"ha":766,"x_min":74,"x_max":705,"o":"m 412 489 q 603 714 603 572 q 389 916 603 916 q 176 714 176 916 l 74 714 q 389 1017 74 1017 q 705 714 705 1017 q 446 391 705 503 l 316 335 q 176 102 176 277 l 705 102 l 705 0 l 74 0 l 74 102 q 282 433 74 345 l 412 489 z "},"3":{"ha":775,"x_min":66,"x_max":696,"o":"m 381 584 q 574 750 574 584 q 381 916 574 916 q 188 750 188 916 l 86 750 q 381 1017 86 1017 q 676 751 676 1017 q 584 536 676 602 q 696 292 696 467 q 381 0 696 0 q 66 294 66 0 l 168 294 q 381 102 168 102 q 595 294 595 102 q 381 485 595 485 l 328 485 l 328 584 l 381 584 z "},"4":{"ha":740,"x_min":27,"x_max":705,"o":"m 473 835 l 150 352 l 473 352 l 473 835 m 473 1017 l 575 1017 l 575 352 l 705 352 l 705 250 l 575 250 l 575 0 l 473 0 l 473 250 l 27 250 l 27 352 l 473 1017 z "},"5":{"ha":777,"x_min":84,"x_max":705,"o":"m 705 339 q 408 0 705 0 q 84 269 118 0 l 186 269 q 408 102 220 102 q 603 339 603 102 q 415 576 603 576 q 220 490 278 576 l 121 490 l 169 1017 l 657 1017 l 657 916 l 260 916 l 235 644 q 415 678 308 678 q 705 339 705 678 z "},"6":{"ha":734,"x_min":58,"x_max":688,"o":"m 165 389 q 373 102 194 102 q 587 322 587 102 q 373 543 587 543 q 165 389 195 543 m 373 0 q 58 509 58 0 q 407 1017 58 1017 q 688 779 688 1017 l 587 779 q 407 916 587 916 q 162 586 184 916 q 373 644 239 644 q 688 322 688 644 q 373 0 688 0 z "},"7":{"ha":748,"x_min":67,"x_max":698,"o":"m 698 916 l 336 0 l 227 0 l 589 916 l 67 916 l 67 1017 l 698 1017 l 698 916 z "},"8":{"ha":731,"x_min":50,"x_max":681,"o":"m 366 916 q 172 746 172 916 q 366 576 172 576 q 559 746 559 576 q 366 916 559 916 m 366 475 q 152 288 152 475 q 366 102 152 102 q 579 288 579 102 q 366 475 579 475 m 161 529 q 71 746 71 595 q 366 1017 71 1017 q 661 746 661 1017 q 570 529 661 595 q 681 288 681 459 q 366 0 681 0 q 50 288 50 0 q 161 529 50 459 z "},"9":{"ha":734,"x_min":45,"x_max":676,"o":"m 569 629 q 361 916 540 916 q 147 695 147 916 q 361 475 147 475 q 569 629 539 475 m 361 1017 q 676 509 676 1017 q 327 0 676 0 q 45 239 45 0 l 147 239 q 327 102 147 102 q 572 431 549 102 q 361 373 495 373 q 45 695 45 373 q 361 1017 45 1017 z "}," ":{"ha":386,"x_min":0,"x_max":0,"o":""},"!":{"ha":591,"x_min":305,"x_max":422,"o":"m 415 1013 l 415 543 l 388 233 l 340 233 l 313 543 l 313 1013 l 415 1013 m 422 144 l 422 0 l 305 0 l 305 144 l 422 144 z "},"\"":{"ha":493,"x_min":72,"x_max":423,"o":"m 72 985 l 201 985 l 201 831 l 163 644 l 109 644 l 72 831 l 72 985 m 294 985 l 423 985 l 423 831 l 386 644 l 332 644 l 294 831 l 294 985 z "},"#":{"ha":772,"x_min":19,"x_max":752,"o":"m 673 968 l 623 696 l 752 696 l 752 602 l 605 602 l 562 359 l 708 359 l 708 265 l 545 265 l 491 -27 l 386 -27 l 438 265 l 267 265 l 212 -27 l 106 -27 l 159 265 l 19 265 l 19 359 l 177 359 l 220 602 l 71 602 l 71 696 l 239 696 l 288 968 l 394 968 l 344 696 l 517 696 l 566 968 l 673 968 m 500 602 l 328 602 l 283 359 l 456 359 l 500 602 z "},"$":{"ha":772,"x_min":47,"x_max":722,"o":"m 340 1069 l 422 1069 l 422 994 q 662 852 597 982 q 691 734 688 800 l 691 721 l 582 721 q 501 875 581 828 q 440 896 473 890 q 422 897 431 897 l 422 551 q 604 485 561 509 q 722 271 722 418 q 627 41 722 126 q 594 17 612 28 q 422 -32 526 -23 l 422 -175 l 340 -175 l 340 -32 q 66 144 126 -18 q 47 264 47 199 q 48 289 47 277 l 158 289 q 187 153 168 186 q 193 143 190 149 q 340 64 241 77 l 340 441 q 165 514 211 481 q 66 717 66 585 q 260 978 66 920 q 340 994 297 989 l 340 1069 m 340 562 l 340 896 q 183 772 207 878 q 179 730 179 753 q 340 562 179 606 m 422 429 l 422 64 q 549 115 507 74 q 608 254 608 171 q 543 380 608 339 q 422 429 503 406 z "},"%":{"ha":1234,"x_min":40,"x_max":1193,"o":"m 276 951 q 464 860 393 951 l 489 821 q 513 711 513 770 q 426 530 513 602 q 277 476 361 476 q 93 564 165 476 q 40 714 40 631 q 127 899 40 827 q 276 951 193 951 m 276 854 q 159 790 201 854 l 143 758 q 136 714 136 736 q 198 597 136 640 q 277 574 235 574 q 394 636 353 574 q 418 713 418 671 q 351 833 418 791 q 276 854 318 854 m 846 985 l 937 985 l 389 -27 l 297 -27 l 846 985 m 956 447 q 1144 355 1074 447 q 1193 208 1193 292 q 1105 28 1193 98 q 957 -26 1040 -26 q 772 61 844 -26 q 719 211 719 127 q 808 395 719 323 q 956 447 873 447 m 956 350 q 839 288 880 350 q 815 211 815 253 q 880 93 815 135 q 957 71 915 71 q 1074 134 1031 71 q 1097 208 1097 168 q 1030 329 1097 288 l 998 343 q 956 350 977 350 z "},"&":{"ha":926,"x_min":72,"x_max":884,"o":"m 684 464 l 795 464 q 715 210 795 334 l 884 0 l 733 0 l 647 109 q 540 18 579 41 q 357 -32 462 -32 q 118 82 195 -32 q 72 244 72 150 q 144 431 72 357 q 297 541 194 481 q 187 729 199 663 q 184 766 184 747 q 275 939 184 873 q 422 985 338 985 q 611 893 547 985 l 631 854 q 647 791 644 825 q 648 766 648 779 q 572 603 648 671 q 456 525 532 567 l 642 298 q 684 458 684 374 l 684 464 m 395 599 q 529 721 508 669 q 538 770 538 742 q 476 873 538 842 q 418 888 450 888 q 307 818 334 888 q 298 768 298 796 q 333 673 298 722 l 395 599 m 581 191 l 358 468 q 199 315 227 385 q 189 254 189 288 q 264 111 189 164 q 370 77 312 77 q 558 167 464 77 q 581 191 569 178 z "},"'":{"ha":265,"x_min":66,"x_max":197,"o":"m 66 985 l 197 985 l 197 831 l 159 644 l 104 644 l 66 831 l 66 985 z "},"(":{"ha":777,"x_min":170,"x_max":472,"o":"m 396 1013 l 472 1013 q 283 416 300 734 q 282 359 282 387 q 452 -259 282 36 q 472 -294 461 -277 l 396 -294 q 188 178 239 -89 q 170 359 170 272 q 298 857 170 608 q 396 1013 342 942 z "},")":{"ha":777,"x_min":305,"x_max":608,"o":"m 382 -294 l 305 -294 q 494 301 477 -16 q 496 358 496 330 q 326 978 496 682 q 305 1013 316 996 l 382 1013 q 590 541 538 807 q 608 358 608 446 q 479 -138 608 110 q 382 -294 436 -223 z "},"*":{"ha":896,"x_min":305,"x_max":726,"o":"m 472 1013 l 559 1013 l 553 857 l 700 909 l 726 828 l 576 786 l 673 663 l 602 612 l 516 742 l 429 612 l 359 663 l 455 786 l 305 828 l 332 909 l 479 857 l 472 1013 z "},"+":{"ha":811,"x_min":69,"x_max":741,"o":"m 741 371 l 741 273 l 454 273 l 454 -14 l 357 -14 l 357 273 l 69 273 l 69 371 l 357 371 l 357 659 l 454 659 l 454 371 l 741 371 z "},",":{"ha":386,"x_min":121,"x_max":267,"o":"m 121 144 l 267 144 l 267 -22 q 121 -204 267 -204 l 121 -151 q 195 -105 180 -149 q 204 -24 204 -79 l 204 0 l 121 0 l 121 144 z "},"-":{"ha":462,"x_min":64,"x_max":394,"o":"m 394 433 l 394 334 l 64 334 l 64 433 l 394 433 z "},".":{"ha":386,"x_min":121,"x_max":265,"o":"m 265 144 l 265 0 l 121 0 l 121 144 l 265 144 z "},"/":{"ha":386,"x_min":-11,"x_max":395,"o":"m 318 1013 l 395 1013 l 66 -27 l -11 -27 l 318 1013 z "},":":{"ha":386,"x_min":153,"x_max":297,"o":"m 297 144 l 297 0 l 153 0 l 153 144 l 297 144 m 297 728 l 297 583 l 153 583 l 153 728 l 297 728 z "},";":{"ha":386,"x_min":153,"x_max":298,"o":"m 298 728 l 298 583 l 154 583 l 154 728 l 298 728 m 153 144 l 298 144 l 298 -22 q 153 -204 298 -204 l 153 -151 q 227 -105 212 -149 q 236 -24 236 -79 l 236 0 l 153 0 l 153 144 z "},"<":{"ha":811,"x_min":62,"x_max":741,"o":"m 62 275 l 62 371 l 741 659 l 741 549 l 195 325 l 741 97 l 741 -12 l 62 275 z "},"=":{"ha":811,"x_min":69,"x_max":741,"o":"m 741 490 l 741 393 l 69 393 l 69 490 l 741 490 m 741 252 l 741 154 l 69 154 l 69 252 l 741 252 z "},">":{"ha":811,"x_min":69,"x_max":748,"o":"m 748 371 l 748 275 l 69 -12 l 69 97 l 616 321 l 69 549 l 69 659 l 748 371 z "},"?":{"ha":1075,"x_min":305,"x_max":905,"o":"m 656 277 l 532 277 l 532 353 q 570 473 532 422 q 643 550 594 504 q 676 579 652 558 q 780 762 779 671 q 695 901 780 860 l 652 916 q 602 921 629 921 q 447 840 488 921 q 423 704 423 793 l 305 704 q 368 931 305 850 q 555 1026 431 1012 q 610 1029 582 1029 q 862 914 785 1029 l 884 872 q 905 762 905 822 q 834 583 905 665 q 766 514 808 551 q 665 396 679 433 q 656 342 656 375 l 656 277 m 656 144 l 656 0 l 532 0 l 532 144 l 656 144 z "},"@":{"ha":1409,"x_min":47,"x_max":1320,"o":"m 923 696 l 1038 696 l 913 307 q 897 237 897 258 q 937 182 897 200 q 966 176 951 176 q 1128 277 1055 176 q 1200 496 1200 375 q 1065 786 1200 663 q 732 922 927 914 l 711 922 q 349 781 507 922 l 302 733 q 165 379 165 576 q 311 49 165 183 q 686 -90 460 -90 q 954 -45 795 -90 l 993 -138 q 679 -197 837 -197 q 247 -48 429 -197 q 51 294 77 90 q 47 358 47 326 q 179 753 47 572 q 267 850 218 807 q 626 1021 416 986 q 729 1029 677 1029 q 1130 889 960 1029 q 1316 571 1291 758 q 1320 513 1320 542 q 1201 203 1320 345 q 943 79 1095 79 q 790 186 809 79 q 593 86 699 86 q 414 182 479 86 q 366 340 366 250 q 476 608 366 492 q 723 725 583 724 q 892 604 840 725 l 923 696 m 715 636 q 554 538 623 636 q 491 339 491 450 q 557 199 491 245 q 629 175 590 175 q 770 265 709 175 q 838 449 817 332 q 846 503 844 479 l 846 512 q 789 616 846 581 q 715 636 755 636 z "},"ក":{"ha":1085,"x_min":213,"x_max":1085,"o":"m 397 544 q 409 491 409 519 q 406 460 409 476 l 314 34 q 271 0 307 0 q 213 38 213 0 q 214 51 213 44 l 304 475 q 306 490 306 483 q 294 528 306 511 q 231 552 277 552 q 255 587 231 570 q 414 655 325 633 q 610 678 503 678 q 787 656 713 678 q 903 591 860 635 q 958 481 946 547 q 963 427 963 456 q 951 329 963 382 l 889 34 q 848 0 882 0 q 787 38 787 0 q 789 51 787 44 l 852 352 q 860 423 860 391 q 858 454 860 439 q 825 524 852 498 q 610 576 774 576 q 397 544 489 576 m 506 705 q 492 698 501 698 q 456 711 478 698 q 374 748 417 733 q 283 769 330 764 l 237 775 q 435 899 376 852 q 523 982 494 946 q 570 1017 552 1017 q 644 956 589 1017 l 697 894 l 767 956 l 802 987 q 856 1017 836 1017 q 895 984 877 1017 q 962 898 913 951 q 1048 814 1010 845 q 1085 767 1085 783 q 1066 758 1085 758 q 1036 761 1055 758 q 914 819 988 770 q 818 905 841 869 l 668 772 l 559 897 l 436 800 l 477 761 q 509 713 509 730 q 506 705 509 709 z "},"ខ":{"ha":1044,"x_min":241,"x_max":1003,"o":"m 355 178 q 423 127 385 151 q 515 102 460 102 q 678 198 583 102 q 875 420 813 337 q 943 498 932 498 l 945 498 q 949 484 949 496 q 945 454 949 473 q 901 330 937 416 q 745 119 864 243 q 515 0 625 0 q 342 57 429 0 q 242 157 256 114 q 241 165 241 160 q 246 201 241 178 q 298 264 253 235 l 736 525 q 844 610 804 565 q 894 706 883 655 q 900 758 900 734 q 895 798 900 780 q 854 863 885 838 q 671 916 791 916 q 532 882 583 916 q 467 783 481 849 q 463 745 463 762 q 473 705 463 720 q 530 678 488 678 q 559 686 559 678 q 546 699 559 690 q 526 736 526 712 q 535 773 526 752 q 590 809 551 809 q 630 802 608 809 q 682 726 682 785 q 675 677 682 705 q 530 576 648 576 q 385 633 426 576 q 359 726 359 668 q 368 800 359 760 q 467 963 391 909 q 671 1017 543 1017 q 823 997 749 1017 q 941 935 898 976 q 998 831 985 893 q 1003 775 1003 805 q 993 686 1003 734 q 925 551 978 614 q 783 434 873 488 l 355 178 z "},"គ":{"ha":1085,"x_min":213,"x_max":1085,"o":"m 456 711 q 374 748 417 733 q 283 769 330 764 l 237 775 q 435 899 376 852 q 523 982 494 946 q 570 1017 552 1017 q 644 956 589 1017 l 697 894 l 767 956 l 802 987 q 856 1017 836 1017 q 895 984 877 1017 q 962 898 913 951 q 1048 814 1010 845 q 1085 767 1085 783 q 1066 758 1085 758 q 1036 761 1055 758 q 914 819 988 770 q 818 905 841 869 l 668 772 l 559 897 l 436 800 l 477 761 q 509 713 509 730 q 506 705 509 709 q 492 698 501 698 q 456 711 478 698 m 327 39 q 271 0 294 0 q 213 38 213 0 q 214 51 213 44 l 304 475 q 402 627 326 576 q 610 678 479 678 q 787 656 713 678 q 903 591 860 635 q 958 481 946 547 q 963 427 963 456 q 951 329 963 382 l 897 68 q 834 0 882 0 q 753 24 787 0 q 727 64 727 42 q 729 78 727 71 q 772 117 739 109 q 821 201 804 126 l 852 352 q 860 423 860 391 q 858 454 860 439 q 825 524 852 498 q 610 576 774 576 q 463 545 511 576 q 406 460 416 513 l 354 221 q 543 339 461 339 q 644 271 644 339 q 543 203 644 203 q 524 237 543 237 q 416 138 506 237 l 327 39 z "},"ឃ":{"ha":1526,"x_min":181,"x_max":1628,"o":"m 386 859 q 389 883 389 872 q 359 916 389 916 q 286 848 300 916 q 285 833 285 840 q 300 799 285 812 q 370 780 321 782 l 386 859 m 886 21 q 788 85 821 43 q 685 21 747 43 q 543 0 624 0 q 302 64 373 0 q 250 190 250 111 q 257 254 250 220 l 348 679 q 208 736 248 686 q 181 822 181 769 q 188 878 181 848 q 245 983 203 948 q 359 1017 288 1017 q 473 975 441 1017 q 494 903 494 947 q 487 846 494 877 l 357 237 q 354 208 354 222 q 390 136 354 162 q 543 102 436 102 q 688 136 633 102 q 761 241 742 172 l 844 633 q 846 649 846 641 q 812 723 846 686 q 678 774 769 768 q 838 900 778 832 q 927 1017 899 968 q 1031 913 976 944 q 1093 896 1060 896 q 1153 909 1121 896 q 1023 833 1095 836 l 1013 833 q 915 872 948 833 l 853 806 q 933 718 911 766 q 947 650 947 686 q 943 610 947 631 l 864 237 q 861 208 861 222 q 897 136 861 162 q 1049 102 943 102 q 1199 140 1143 102 q 1271 254 1255 178 l 1351 633 q 1353 649 1353 641 q 1318 723 1353 686 q 1185 774 1276 768 q 1345 900 1284 832 q 1434 1017 1405 968 q 1531 910 1482 944 q 1614 881 1573 881 q 1628 882 1621 881 l 1594 859 q 1508 833 1559 835 l 1502 833 q 1421 872 1455 833 l 1360 806 q 1440 718 1417 766 q 1454 650 1454 686 q 1450 610 1454 631 l 1371 237 q 1265 60 1345 119 q 1049 0 1185 0 q 886 21 951 0 z "},"ង":{"ha":1085,"x_min":215,"x_max":1086,"o":"m 755 852 q 842 892 835 861 q 843 905 843 899 q 800 936 843 936 q 751 909 760 936 q 747 887 747 898 q 755 852 747 870 m 728 747 q 678 746 705 746 q 454 806 520 746 q 406 923 406 849 q 413 984 406 951 q 504 1130 431 1069 q 734 1223 576 1191 q 917 1298 864 1254 q 983 1402 970 1342 q 1006 1444 990 1432 q 1032 1452 1017 1452 q 1047 1451 1040 1452 q 1081 1428 1072 1446 q 1086 1405 1086 1419 q 1083 1382 1086 1395 q 991 1228 1063 1291 q 758 1126 920 1166 q 578 1060 632 1102 q 513 963 525 1019 q 510 938 510 950 q 537 880 510 902 q 656 848 573 851 q 651 890 651 869 q 661 954 651 922 q 800 1017 681 1017 q 913 979 881 1017 q 933 914 933 955 q 927 865 933 892 q 863 782 915 812 q 969 661 937 743 q 991 547 991 602 q 986 492 991 519 l 896 68 q 830 0 882 0 q 728 43 778 0 l 578 170 l 375 43 q 256 0 307 0 q 215 42 215 0 q 218 68 215 54 l 311 507 q 313 519 313 513 q 285 559 313 546 q 259 606 259 572 q 261 627 259 616 q 339 678 271 678 q 414 642 391 678 q 425 589 425 624 q 412 489 425 549 l 338 141 l 589 295 l 802 113 l 886 509 q 888 533 888 520 q 873 615 888 568 q 767 724 852 681 q 728 747 745 735 z "},"ច":{"ha":1085,"x_min":237,"x_max":1085,"o":"m 456 711 q 374 748 417 733 q 283 769 330 764 l 237 775 q 435 899 376 852 q 523 982 494 946 q 570 1017 552 1017 q 644 956 589 1017 l 697 894 l 767 956 l 802 987 q 856 1017 836 1017 q 895 984 877 1017 q 962 898 913 951 q 1048 814 1010 845 q 1085 767 1085 783 q 1066 758 1085 758 q 1036 761 1055 758 q 914 819 988 770 q 818 905 841 869 l 668 772 l 559 897 l 436 800 l 477 761 q 509 713 509 730 q 506 705 509 709 q 492 698 501 698 q 456 711 478 698 m 358 237 q 355 206 355 220 q 384 137 355 163 q 564 102 424 102 q 754 142 692 102 q 831 252 816 182 l 878 475 q 814 559 814 509 q 841 644 814 610 q 916 678 868 678 q 995 661 971 678 q 1013 625 1013 648 q 1011 609 1013 617 l 932 237 q 815 60 907 119 q 564 0 723 0 q 309 68 384 0 q 258 149 271 102 q 252 199 252 172 q 258 254 252 225 l 307 486 q 313 535 313 515 q 297 583 313 570 q 271 646 271 604 q 332 700 271 688 q 359 703 347 703 q 418 678 399 703 q 435 621 435 656 q 431 577 435 601 l 358 237 z "},"ឆ":{"ha":1085,"x_min":215,"x_max":1085,"o":"m 456 711 q 374 748 417 733 q 283 769 330 764 l 237 775 q 435 899 376 852 q 523 982 494 946 q 570 1017 552 1017 q 644 956 589 1017 l 697 894 l 767 956 l 802 987 q 856 1017 836 1017 q 895 984 877 1017 q 962 898 913 951 q 1048 814 1010 845 q 1085 767 1085 783 q 1066 758 1085 758 q 1036 761 1055 758 q 914 819 988 770 q 818 905 841 869 l 668 772 l 559 897 l 436 800 l 477 761 q 509 713 509 730 q 506 705 509 709 q 492 698 501 698 q 456 711 478 698 m 644 328 q 690 313 657 313 q 741 262 741 313 q 690 212 741 212 q 557 258 593 212 q 534 336 534 288 q 540 391 534 361 q 605 507 557 469 q 726 543 651 543 q 907 475 854 543 q 945 344 945 426 q 932 237 945 296 q 815 60 907 119 q 631 0 723 0 q 466 51 532 0 q 373 102 399 102 q 322 66 330 102 q 271 0 307 0 q 215 46 215 0 q 218 67 215 56 l 307 486 q 313 535 313 515 q 297 583 313 570 q 271 646 271 604 q 332 700 271 688 q 359 703 347 703 q 418 678 399 703 q 435 621 435 656 q 431 577 435 601 l 351 202 q 373 203 361 203 q 518 127 429 203 q 631 102 548 102 q 754 142 692 102 q 831 252 816 182 q 840 326 840 293 q 820 401 840 374 q 726 441 792 441 q 671 424 692 441 q 638 364 647 405 q 636 350 636 356 q 644 328 636 336 z "},"ជ":{"ha":1085,"x_min":215,"x_max":1125,"o":"m 456 711 q 374 748 417 733 q 283 769 330 764 l 237 775 q 435 899 376 852 q 523 982 494 946 q 570 1017 552 1017 q 644 956 589 1017 q 718 900 676 919 q 814 882 761 882 q 943 945 889 882 q 1032 1135 998 1008 q 1059 1196 1044 1178 q 1086 1210 1072 1210 q 1096 1208 1091 1210 q 1122 1180 1117 1202 q 1125 1160 1125 1171 q 1119 1118 1125 1142 q 1006 865 1082 949 q 814 780 930 780 q 674 809 738 780 q 566 888 610 838 l 448 789 l 477 761 q 509 713 509 730 q 506 705 509 709 q 492 698 501 698 q 456 711 478 698 m 338 141 l 589 295 l 802 113 l 897 559 q 900 589 900 576 q 893 616 900 606 q 882 656 882 633 q 916 678 882 678 q 982 650 949 678 q 1003 591 1003 632 q 997 542 1003 570 l 896 68 q 830 0 882 0 q 728 43 778 0 l 578 170 l 375 43 q 256 0 307 0 q 215 42 215 0 q 218 68 215 54 l 307 486 q 313 535 313 515 q 297 583 313 570 q 271 646 271 604 q 332 700 271 688 q 359 703 347 703 q 418 678 399 703 q 435 621 435 656 q 431 577 435 601 l 338 141 z "},"ឈ":{"ha":2033,"x_min":228,"x_max":2135,"o":"m 857 691 q 865 762 865 730 q 863 793 865 779 q 831 863 857 837 q 663 916 779 916 q 536 884 584 916 q 479 800 490 852 l 380 338 q 407 339 393 339 q 475 301 444 339 q 495 242 495 277 q 489 199 495 222 q 405 68 471 136 q 303 0 339 0 q 243 34 267 0 q 228 89 228 55 q 233 136 228 110 l 378 814 q 475 966 399 916 q 663 1017 552 1017 q 792 996 719 1017 q 908 930 865 974 q 964 821 951 886 q 968 766 968 795 q 957 668 968 722 l 865 237 q 861 208 861 222 q 897 136 861 162 q 1050 102 943 102 q 1195 136 1140 102 q 1268 241 1249 172 l 1352 633 q 1354 649 1354 641 q 1319 723 1354 686 q 1185 774 1276 768 q 1345 900 1285 832 q 1434 1017 1406 968 q 1538 913 1483 944 q 1600 896 1567 896 q 1660 909 1628 896 q 1530 833 1602 836 l 1520 833 q 1422 872 1455 833 l 1360 806 q 1440 718 1418 766 q 1455 650 1455 686 q 1451 610 1455 631 l 1371 237 q 1368 208 1368 222 q 1404 136 1368 162 q 1556 102 1450 102 q 1706 140 1651 102 q 1778 254 1762 178 l 1858 633 q 1860 649 1860 641 q 1826 723 1860 686 q 1692 774 1783 768 q 1852 900 1792 832 q 1941 1017 1912 968 q 2039 910 1990 944 q 2121 881 2080 881 q 2135 882 2128 881 l 2101 859 q 2016 833 2066 835 l 2009 833 q 1929 872 1963 833 l 1867 806 q 1947 718 1925 766 q 1961 650 1961 686 q 1957 610 1961 631 l 1878 237 q 1773 60 1853 119 q 1556 0 1692 0 q 1393 21 1458 0 q 1295 85 1328 43 q 1192 21 1254 43 q 1050 0 1131 0 q 809 64 880 0 q 757 190 757 111 q 764 254 757 220 l 857 691 z "},"ញ":{"ha":1729,"x_min":227,"x_max":1678,"o":"m 330 102 q 443 148 390 102 q 513 273 495 193 q 516 300 516 288 q 504 328 516 321 q 441 339 485 339 q 368 286 380 339 l 330 102 m 1094 712 q 1078 604 1092 662 l 964 68 q 902 0 949 0 q 821 24 854 0 q 795 64 795 42 q 797 78 795 71 q 840 117 807 109 q 888 201 872 126 l 977 620 q 994 747 994 693 q 994 767 994 758 q 962 856 990 826 q 886 916 907 916 q 795 831 864 916 l 726 746 l 683 831 q 621 916 640 916 q 540 852 603 916 q 453 682 476 789 l 400 431 q 441 441 420 441 q 542 424 512 441 q 616 296 616 380 q 612 259 616 279 q 503 69 590 138 q 330 0 416 0 q 242 34 267 0 q 227 90 227 55 q 233 136 227 111 l 352 703 q 473 928 381 839 l 519 972 q 622 1017 566 1017 q 710 961 678 1017 l 742 904 q 825 990 790 959 q 901 1022 859 1022 q 1035 918 944 1022 q 1074 854 1059 890 q 1185 977 1122 936 q 1356 1017 1247 1017 q 1634 922 1567 1017 q 1676 804 1669 876 q 1678 767 1678 787 q 1662 638 1678 709 l 1541 68 q 1478 0 1526 0 q 1397 24 1431 0 q 1371 64 1371 42 q 1373 78 1371 71 q 1416 117 1383 109 q 1465 201 1449 126 l 1563 659 q 1573 749 1573 709 q 1547 851 1573 812 q 1356 916 1503 916 q 1197 865 1255 916 q 1094 712 1140 814 m 276 -237 q 237 -180 237 -203 q 251 -142 237 -156 q 281 -130 262 -130 q 288 -131 284 -130 q 347 -163 313 -134 q 882 -373 586 -373 q 1272 -317 1178 -373 q 1375 -224 1367 -262 q 1379 -188 1379 -200 q 1377 -177 1379 -180 q 1356 -170 1373 -170 q 1305 -203 1356 -203 q 1255 -156 1255 -203 q 1356 -68 1255 -68 q 1459 -116 1428 -68 q 1480 -193 1480 -147 q 1474 -246 1480 -217 q 1332 -401 1456 -328 q 878 -475 1207 -475 q 276 -237 549 -475 z "},"ដ":{"ha":1085,"x_min":215,"x_max":1124,"o":"m 338 141 l 589 295 l 802 113 l 897 559 q 900 589 900 576 q 893 616 900 606 q 882 656 882 633 q 916 678 882 678 q 982 650 949 678 q 1003 591 1003 632 q 997 542 1003 570 l 896 68 q 830 0 882 0 q 728 43 778 0 l 578 170 l 375 43 q 256 0 307 0 q 215 42 215 0 q 218 68 215 54 l 307 486 q 313 535 313 515 q 297 583 313 570 q 271 646 271 604 q 332 700 271 688 q 359 703 347 703 q 418 678 399 703 q 435 621 435 656 q 431 577 435 601 l 338 141 m 1112 1085 q 1065 960 1100 1030 q 989 848 1034 897 q 882 780 949 804 q 644 746 789 746 q 418 793 488 746 q 365 895 365 830 q 369 934 365 913 q 492 1017 387 1017 q 570 949 570 1017 q 517 882 570 882 q 470 909 470 882 q 471 916 470 912 q 469 906 469 911 q 507 865 469 879 q 644 848 550 848 q 842 875 766 848 q 926 928 897 895 q 986 1015 960 966 q 1038 1137 1014 1069 q 1093 1205 1061 1205 q 1124 1173 1124 1205 q 1112 1085 1124 1140 z "},"ឋ":{"ha":1085,"x_min":257,"x_max":1187,"o":"m 376 814 q 312 899 312 848 q 339 983 312 949 q 414 1017 366 1017 q 488 991 463 1017 q 506 944 506 974 q 503 917 506 932 l 366 271 q 361 229 361 248 q 396 144 361 175 q 576 102 444 102 q 764 140 712 102 q 832 254 816 178 l 912 633 q 914 649 914 641 q 880 723 914 686 q 746 774 837 768 q 869 874 822 813 q 943 1017 916 936 q 1059 922 1019 922 l 1059 922 q 1099 1031 1099 922 q 1049 1239 1099 1155 q 1015 1314 1015 1296 q 1022 1322 1015 1322 q 1116 1238 1044 1322 q 1187 983 1187 1153 q 1150 876 1187 916 q 1063 833 1114 835 l 1053 833 q 949 872 983 833 l 914 812 q 1001 718 979 766 q 1015 650 1015 686 q 1011 610 1015 631 l 932 237 q 827 60 907 119 q 576 0 746 0 q 321 75 407 0 q 257 222 257 130 q 264 288 257 253 l 376 814 z "},"ឌ":{"ha":1085,"x_min":281,"x_max":1032,"o":"m 968 564 q 811 434 913 494 l 385 171 l 391 155 q 481 102 408 102 q 668 193 534 102 l 844 313 q 909 373 857 373 q 945 320 945 373 q 937 262 945 296 l 866 -72 q 800 -136 852 -136 q 761 -92 761 -136 q 765 -58 761 -77 l 814 172 l 732 115 q 481 0 570 0 q 362 28 408 0 q 297 114 316 57 l 283 157 q 281 165 281 160 q 287 201 281 178 q 339 264 294 235 l 770 525 q 886 621 845 569 q 928 706 918 661 q 931 737 931 721 q 926 781 931 758 q 867 919 913 842 q 686 756 710 756 q 578 916 663 756 q 465 748 486 835 q 462 713 462 729 q 470 671 462 688 q 500 644 484 644 q 528 663 517 644 q 529 669 529 666 q 487 710 529 687 q 557 746 525 746 q 601 729 581 746 q 629 673 629 705 q 612 615 629 647 q 500 543 572 543 q 387 606 429 543 q 359 707 359 648 q 365 766 359 734 q 512 985 391 888 q 595 1017 552 1017 q 705 877 638 1017 q 875 1017 825 1017 q 956 965 924 1017 q 1025 801 1009 878 q 1032 737 1032 768 q 1027 686 1032 711 q 968 564 1013 622 z "},"ឍ":{"ha":1662,"x_min":227,"x_max":1763,"o":"m 330 102 q 443 148 390 102 q 513 273 495 193 q 516 300 516 288 q 504 328 516 321 q 441 339 485 339 q 368 286 380 339 l 330 102 m 1487 633 q 1489 649 1489 641 q 1454 723 1489 686 q 1320 774 1411 768 q 1480 900 1420 832 q 1569 1017 1541 968 q 1667 910 1618 944 q 1750 881 1708 881 q 1763 882 1756 881 l 1729 859 q 1644 833 1695 835 l 1638 833 q 1557 872 1591 833 l 1495 806 q 1575 718 1553 766 q 1590 650 1590 686 q 1586 610 1590 631 l 1470 68 q 1404 0 1455 0 q 1302 43 1352 0 l 1186 149 l 1017 43 q 897 0 949 0 q 857 42 857 0 q 859 68 857 54 l 977 620 q 994 747 994 693 q 994 767 994 758 q 956 871 990 826 q 899 916 920 916 q 746 794 878 916 q 631 916 660 916 q 519 858 579 913 q 453 682 481 818 l 400 431 q 441 441 420 441 q 542 424 512 441 q 616 296 616 380 q 612 259 616 279 q 503 69 590 138 q 330 0 416 0 q 242 34 267 0 q 227 90 227 55 q 233 136 227 111 l 352 703 q 461 937 387 868 l 519 983 q 642 1017 566 1017 q 730 961 699 1017 l 761 916 q 905 1017 852 1017 q 1019 941 958 1017 q 1091 787 1080 865 q 1095 735 1095 762 q 1078 604 1095 675 l 979 141 l 1196 275 l 1375 113 l 1487 633 z "},"ណ":{"ha":2238,"x_min":228,"x_max":2188,"o":"m 925 691 q 933 762 933 730 q 931 793 933 779 q 899 863 925 837 q 697 916 847 916 q 536 884 584 916 q 479 800 490 852 l 380 338 q 407 339 393 339 q 475 301 444 339 q 495 242 495 277 q 489 199 495 222 q 405 68 471 136 q 303 0 339 0 q 243 34 267 0 q 228 89 228 55 q 233 136 228 110 l 378 814 q 475 966 399 916 q 697 1017 552 1017 q 860 996 787 1017 q 976 930 933 974 q 1031 821 1019 886 q 1036 766 1036 795 q 1025 668 1036 722 l 911 141 l 1175 295 l 1379 113 l 1529 814 q 1627 966 1551 916 q 1869 1017 1704 1017 q 2011 996 1938 1017 q 2127 930 2085 974 q 2183 821 2171 886 q 2188 766 2188 795 q 2176 668 2188 722 l 2049 68 q 1987 0 2035 0 q 1906 24 1940 0 q 1880 64 1880 42 q 1882 78 1880 71 q 1925 117 1892 109 q 1973 201 1957 126 l 2077 691 q 2085 762 2085 730 q 2083 793 2085 779 q 2050 863 2077 837 q 1869 916 1999 916 q 1688 884 1735 916 q 1630 800 1641 852 l 1474 68 q 1408 0 1459 0 q 1306 43 1356 0 l 1164 170 l 949 43 q 829 0 881 0 q 789 42 789 0 q 791 68 789 54 l 925 691 z "},"ត":{"ha":1085,"x_min":227,"x_max":1085,"o":"m 456 711 q 374 748 417 733 q 283 769 330 764 l 237 775 q 435 899 376 852 q 523 982 494 946 q 570 1017 552 1017 q 644 956 589 1017 l 697 894 l 767 956 l 802 987 q 856 1017 836 1017 q 895 984 877 1017 q 962 898 913 951 q 1048 814 1010 845 q 1085 767 1085 783 q 1066 758 1085 758 q 1036 761 1055 758 q 914 819 988 770 q 818 905 841 869 l 668 772 l 559 897 l 436 800 l 477 761 q 509 713 509 730 q 506 705 509 709 q 492 698 501 698 q 456 711 478 698 m 330 102 q 429 148 390 102 q 478 239 468 193 q 481 266 481 254 q 469 294 481 288 q 420 305 450 305 q 361 252 372 305 l 330 102 m 304 475 q 402 627 326 576 q 610 678 479 678 q 787 656 713 678 q 903 591 860 635 q 958 481 946 547 q 963 427 963 456 q 951 329 963 382 l 897 68 q 834 0 882 0 q 753 24 787 0 q 727 64 727 42 q 729 78 727 71 q 772 117 739 109 q 821 201 804 126 l 852 352 q 860 423 860 391 q 858 454 860 439 q 825 524 852 498 q 610 576 774 576 q 463 545 511 576 q 406 460 416 513 l 393 406 q 420 407 406 407 q 531 381 491 407 q 582 272 582 347 q 578 225 582 250 q 490 69 563 138 q 330 0 416 0 q 242 34 267 0 q 227 90 227 55 q 233 136 227 111 l 304 475 z "},"ថ":{"ha":1085,"x_min":237,"x_max":1125,"o":"m 358 237 q 355 206 355 220 q 384 137 355 163 q 564 102 424 102 q 754 142 692 102 q 831 252 816 182 l 878 475 q 814 559 814 509 q 841 644 814 610 q 916 678 868 678 q 986 652 958 678 q 1006 601 1006 635 q 1001 563 1006 584 l 932 237 q 815 60 907 119 q 564 0 723 0 q 309 68 384 0 q 258 149 271 102 q 252 199 252 172 q 258 254 252 225 l 307 486 q 313 535 313 515 q 297 583 313 570 q 271 646 271 604 q 332 700 271 688 q 359 703 347 703 q 418 678 399 703 q 435 621 435 656 q 431 577 435 601 l 358 237 m 456 711 q 374 748 417 733 q 283 769 330 764 l 237 775 q 435 899 376 852 q 523 982 494 946 q 570 1017 552 1017 q 644 956 589 1017 q 718 900 676 919 q 814 882 761 882 q 943 945 889 882 q 1032 1135 998 1008 q 1059 1196 1044 1178 q 1086 1210 1072 1210 q 1096 1208 1091 1210 q 1122 1180 1117 1202 q 1125 1160 1125 1171 q 1119 1118 1125 1142 q 1006 865 1082 949 q 814 780 930 780 q 674 809 738 780 q 566 888 610 838 l 448 789 l 477 761 q 509 713 509 730 q 506 705 509 709 q 492 698 501 698 q 456 711 478 698 z "},"ទ":{"ha":1051,"x_min":312,"x_max":1023,"o":"m 791 498 q 774 453 779 484 l 772 444 q 845 475 840 450 q 846 484 846 480 q 814 509 846 509 q 791 498 800 509 m 727 578 q 814 610 762 610 q 878 602 851 610 q 946 535 933 586 q 949 504 949 521 q 944 456 949 482 q 894 381 934 409 q 749 340 844 346 l 715 186 q 637 42 694 89 q 502 0 585 0 q 363 44 404 0 q 334 128 334 75 q 340 182 334 153 l 355 245 q 355 253 355 249 q 312 279 355 279 q 346 330 319 313 q 418 347 372 347 q 463 285 463 347 q 456 226 463 260 l 444 167 q 441 147 441 156 q 454 115 441 126 q 502 102 469 102 q 583 133 553 102 q 616 203 606 158 l 646 342 q 399 456 471 357 q 351 631 351 524 q 367 766 351 692 q 475 951 393 888 q 712 1017 562 1017 q 979 951 907 1017 q 1023 848 1023 911 q 1018 801 1023 825 q 972 725 1007 751 q 875 699 937 699 q 780 766 780 699 q 863 834 780 834 q 859 811 859 821 q 886 784 859 784 q 918 824 911 784 q 920 838 920 831 q 892 884 920 866 q 712 916 844 916 q 541 867 602 916 q 467 742 484 824 q 456 646 456 690 q 493 519 456 568 q 667 442 544 452 l 673 469 q 727 578 689 543 z "},"ធ":{"ha":1085,"x_min":215,"x_max":1085,"o":"m 456 711 q 374 748 417 733 q 283 769 330 764 l 237 775 q 435 899 376 852 q 523 982 494 946 q 570 1017 552 1017 q 644 956 589 1017 l 697 894 l 767 956 l 802 987 q 856 1017 836 1017 q 895 984 877 1017 q 962 898 913 951 q 1048 814 1010 845 q 1085 767 1085 783 q 1066 758 1085 758 q 1036 761 1055 758 q 914 819 988 770 q 818 905 841 869 l 668 772 l 559 897 l 436 800 l 477 761 q 509 713 509 730 q 506 705 509 709 q 492 698 501 698 q 456 711 478 698 m 896 68 q 830 0 882 0 q 728 43 778 0 l 578 170 l 375 43 q 256 0 307 0 q 215 42 215 0 q 218 68 215 54 l 307 486 q 313 535 313 515 q 297 583 313 570 q 271 646 271 604 q 332 700 271 688 q 359 703 347 703 q 418 678 399 703 q 435 621 435 656 q 431 577 435 601 l 338 141 l 589 295 l 802 113 l 878 475 q 814 559 814 509 q 841 644 814 610 q 916 678 868 678 q 986 652 958 678 q 1006 601 1006 635 q 1001 563 1006 584 l 896 68 z "},"ន":{"ha":1085,"x_min":215,"x_max":1019,"o":"m 273 325 q 275 342 275 334 q 259 374 275 365 q 237 415 237 385 q 274 460 237 446 q 313 467 292 467 q 357 460 334 467 q 392 407 392 449 q 389 378 392 394 l 351 202 q 373 203 361 203 q 489 153 429 203 q 500 144 494 148 q 631 102 556 102 q 754 142 692 102 q 831 252 816 182 q 840 329 840 294 q 816 420 840 385 q 678 475 777 475 q 414 564 488 475 q 366 715 366 621 q 378 819 366 762 q 468 958 397 909 q 712 1017 553 1017 q 976 945 904 1017 q 1015 871 1006 915 q 1019 831 1019 852 q 1013 773 1019 804 q 875 658 987 658 q 773 718 773 658 q 837 793 773 779 q 875 760 846 760 q 912 792 905 760 q 915 816 915 805 q 884 878 915 854 q 712 916 836 916 q 526 872 585 916 q 477 797 488 844 q 470 732 470 762 q 500 637 470 673 q 678 576 549 576 q 905 492 841 576 q 945 349 945 437 q 932 237 945 299 q 815 60 907 119 q 631 0 723 0 q 473 51 539 0 q 458 62 465 56 q 373 102 402 102 q 322 66 330 102 q 271 0 307 0 q 215 46 215 0 q 218 67 215 56 l 273 325 z "},"ប":{"ha":1085,"x_min":172,"x_max":1187,"o":"m 338 633 q 340 649 340 641 q 306 723 340 686 q 172 774 263 768 q 332 900 272 832 q 421 1017 393 968 q 525 913 470 944 q 587 896 554 896 q 647 909 615 896 q 517 833 589 836 l 507 833 q 409 872 442 833 l 347 806 q 427 718 405 766 q 441 650 441 686 q 437 610 441 631 l 366 271 q 361 229 361 248 q 396 144 361 175 q 576 102 444 102 q 764 140 712 102 q 832 254 816 178 l 912 633 q 914 649 914 641 q 880 723 914 686 q 746 774 837 768 q 906 900 846 832 q 995 1017 966 968 q 1093 910 1044 944 q 1174 881 1134 881 q 1187 882 1181 881 l 1155 859 q 1069 833 1120 835 l 1063 833 q 983 872 1017 833 l 921 806 q 1001 718 979 766 q 1015 650 1015 686 q 1011 610 1015 631 l 932 237 q 827 60 907 119 q 576 0 746 0 q 321 75 407 0 q 257 222 257 130 q 264 288 257 253 l 338 633 z "},"ផ":{"ha":1085,"x_min":216,"x_max":1126,"o":"m 456 711 q 374 748 418 733 q 284 769 330 764 l 238 775 q 436 899 376 852 q 524 982 495 946 q 571 1017 553 1017 q 644 956 589 1017 q 719 900 677 919 q 814 882 762 882 q 944 945 890 882 q 1033 1135 998 1008 q 1060 1196 1044 1178 q 1087 1210 1073 1210 q 1097 1208 1092 1210 q 1123 1180 1118 1202 q 1126 1160 1126 1171 q 1120 1118 1126 1142 q 1006 865 1083 949 q 814 780 930 780 q 675 809 739 780 q 567 888 611 838 l 448 789 l 478 761 q 509 713 509 730 q 507 705 509 709 q 492 698 502 698 q 456 711 479 698 m 888 519 q 893 556 893 543 q 882 576 893 576 q 803 527 823 576 q 792 484 792 501 q 802 460 792 468 q 872 441 823 443 l 888 519 m 897 68 q 831 0 882 0 q 729 43 779 0 l 579 170 l 376 43 q 256 0 308 0 q 216 42 216 0 q 218 68 216 54 l 308 486 q 314 535 314 515 q 298 583 314 570 q 272 646 272 604 q 332 700 272 688 q 360 703 347 703 q 419 678 399 703 q 436 621 436 656 q 431 577 436 601 l 338 141 l 589 295 l 802 113 l 850 340 q 711 397 751 347 q 688 463 688 425 q 702 528 688 492 q 782 644 732 609 q 882 678 831 678 q 976 635 944 678 q 996 564 996 608 q 989 507 996 538 l 897 68 z "},"ព":{"ha":1153,"x_min":227,"x_max":1102,"o":"m 330 102 q 443 165 370 102 q 513 273 495 210 q 516 300 516 288 q 504 328 516 321 q 441 339 485 339 q 368 286 380 339 l 330 102 m 352 703 q 443 916 387 868 l 511 971 q 610 1017 566 1017 q 710 961 678 1017 l 744 909 q 905 1017 852 1017 q 1024 943 958 1017 q 1101 784 1090 863 q 1102 763 1102 774 q 1078 604 1102 709 l 964 68 q 902 0 949 0 q 821 24 854 0 q 795 64 795 42 q 797 78 795 71 q 840 117 807 109 q 888 201 872 126 l 977 620 q 1003 764 1002 732 q 960 872 1000 823 q 899 916 920 916 q 726 780 878 916 q 610 916 640 916 q 555 892 579 913 l 506 850 q 453 682 481 829 l 400 431 q 441 441 420 441 q 542 424 512 441 q 616 296 616 380 q 612 259 616 279 q 503 86 590 155 q 330 0 396 0 q 242 34 267 0 q 227 90 227 55 q 233 136 227 111 l 352 703 z "},"ភ":{"ha":1085,"x_min":136,"x_max":1051,"o":"m 422 711 q 340 748 383 733 q 250 769 296 764 l 203 775 q 401 899 342 852 q 489 982 460 946 q 536 1017 518 1017 q 610 956 555 1017 l 663 894 l 733 956 l 768 987 q 822 1017 802 1017 q 861 984 843 1017 q 928 898 880 951 q 1014 814 977 845 q 1051 767 1051 783 q 1032 758 1051 758 q 1002 761 1021 758 q 880 819 954 770 q 784 905 807 869 l 634 772 l 526 897 l 402 800 l 444 761 q 475 713 475 730 q 472 705 475 709 q 458 698 467 698 q 422 711 444 698 m 304 475 q 402 627 326 576 q 610 678 479 678 q 787 656 713 678 q 903 591 860 635 q 958 481 946 547 q 963 427 963 456 q 951 329 963 382 l 897 68 q 834 0 882 0 q 753 24 787 0 q 727 64 727 42 q 729 78 727 71 q 772 117 739 109 q 821 201 804 126 l 852 352 q 860 423 860 391 q 858 454 860 439 q 825 524 852 498 q 610 576 774 576 q 463 545 511 576 q 406 460 416 513 l 329 102 q 293 17 315 33 q 248 0 271 0 q 167 81 198 0 q 136 232 136 161 q 178 334 136 302 q 235 354 203 354 q 277 346 255 354 l 304 475 z "},"ម":{"ha":1085,"x_min":172,"x_max":1187,"o":"m 401 441 l 366 271 q 361 229 361 248 q 396 144 361 175 q 576 102 444 102 q 764 140 712 102 q 832 254 816 178 l 871 441 l 401 441 m 423 543 l 893 543 l 912 633 q 914 649 914 641 q 880 723 914 686 q 746 774 837 768 q 906 900 846 832 q 995 1017 966 968 q 1093 910 1044 944 q 1174 881 1134 881 q 1187 882 1181 881 l 1155 859 q 1069 833 1120 835 l 1063 833 q 983 872 1017 833 l 921 806 q 1001 718 979 766 q 1015 650 1015 686 q 1011 610 1015 631 l 932 237 q 827 60 907 119 q 576 0 746 0 q 321 75 407 0 q 257 222 257 130 q 264 288 257 253 l 338 633 q 340 649 340 641 q 306 723 340 686 q 172 774 263 768 q 332 900 272 832 q 421 1017 393 968 q 525 913 470 944 q 587 896 554 896 q 647 909 615 896 q 517 833 589 836 l 507 833 q 409 872 442 833 l 347 806 q 427 718 405 766 q 441 650 441 686 q 437 610 441 631 l 423 543 z "},"យ":{"ha":1628,"x_min":264,"x_max":1729,"o":"m 393 892 q 515 1017 419 1017 q 605 966 578 1017 q 621 902 621 935 q 615 861 621 882 q 555 786 600 806 q 509 774 531 774 q 473 783 490 774 l 380 336 q 372 268 372 299 q 403 165 372 206 q 576 102 450 102 q 755 136 701 102 q 829 241 810 172 l 912 633 q 914 649 914 641 q 880 723 914 686 q 746 774 837 768 q 906 900 846 832 q 995 1017 966 968 q 1099 913 1044 944 q 1160 896 1128 896 q 1221 909 1189 896 q 1090 833 1162 836 l 1080 833 q 983 872 1016 833 l 921 806 q 1001 718 979 766 q 1015 650 1015 686 q 1011 610 1015 631 l 932 237 q 928 208 928 222 q 964 136 928 162 q 1131 102 1010 102 q 1301 140 1245 102 q 1373 254 1356 178 l 1453 633 q 1455 649 1455 641 q 1420 723 1455 686 q 1286 774 1377 768 q 1447 900 1386 832 q 1535 1017 1507 968 q 1633 910 1584 944 q 1716 881 1674 881 q 1729 882 1723 881 l 1695 859 q 1610 833 1661 835 l 1604 833 q 1523 872 1557 833 l 1461 806 q 1541 718 1519 766 q 1556 650 1556 686 q 1552 610 1556 631 l 1472 237 q 1367 60 1447 119 q 1131 0 1286 0 q 954 21 1019 0 q 856 85 888 43 q 753 21 814 43 q 576 0 692 0 q 347 58 407 0 q 271 188 288 115 q 264 251 264 218 q 279 353 264 298 l 393 892 z "},"រ":{"ha":576,"x_min":182,"x_max":677,"o":"m 391 102 q 355 17 377 33 q 311 0 334 0 q 218 100 260 0 q 182 241 182 182 q 184 264 182 253 q 237 351 193 328 q 286 364 264 364 q 315 358 302 364 q 340 346 328 352 l 401 633 q 403 649 403 641 q 368 723 403 686 q 235 774 326 768 q 395 900 334 832 q 484 1017 455 968 q 581 910 532 944 q 664 881 623 881 q 677 882 671 881 l 644 859 q 558 833 609 835 l 552 833 q 471 872 505 833 l 410 806 q 490 718 467 766 q 504 650 504 686 q 500 610 504 631 l 391 102 z "},"ល":{"ha":1594,"x_min":228,"x_max":1696,"o":"m 1104 0 q 843 64 914 0 q 791 190 791 111 q 798 254 791 220 l 891 691 q 899 762 899 730 q 897 793 899 779 q 865 863 891 837 q 697 916 813 916 q 536 884 584 916 q 479 800 490 852 l 380 338 q 407 339 393 339 q 475 301 444 339 q 495 242 495 277 q 489 199 495 222 q 405 68 471 136 q 303 0 339 0 q 243 34 267 0 q 228 89 228 55 q 233 136 228 110 l 378 814 q 475 966 399 916 q 697 1017 552 1017 q 826 996 753 1017 q 942 930 899 974 q 998 821 985 886 q 1002 766 1002 795 q 991 668 1002 722 l 899 237 q 895 208 895 222 q 931 136 895 162 q 1104 102 977 102 q 1267 140 1212 102 q 1339 254 1323 178 l 1419 633 q 1421 649 1421 641 q 1387 723 1421 686 q 1253 774 1344 768 q 1413 900 1353 832 q 1502 1017 1474 968 q 1600 910 1551 944 q 1683 881 1641 881 q 1696 882 1689 881 l 1662 859 q 1577 833 1628 835 l 1571 833 q 1490 872 1524 833 l 1428 806 q 1508 718 1486 766 q 1522 650 1522 686 q 1518 610 1522 631 l 1439 237 q 1334 60 1414 119 q 1104 0 1253 0 z "},"វ":{"ha":576,"x_min":182,"x_max":675,"o":"m 391 102 q 355 17 377 33 q 311 0 334 0 q 218 100 260 0 q 182 241 182 182 q 184 264 182 253 q 237 351 193 328 q 286 364 264 364 q 315 358 302 364 q 340 346 328 352 l 401 633 q 403 649 403 641 q 368 723 403 686 q 235 774 326 768 q 357 874 311 813 q 431 1017 404 936 q 547 922 508 922 l 548 922 q 587 1031 587 922 q 538 1239 587 1155 q 503 1314 503 1296 q 511 1322 503 1322 q 604 1238 533 1322 q 675 983 675 1153 q 639 876 675 916 q 551 833 602 835 l 542 833 q 437 872 471 833 l 403 812 q 490 718 467 766 q 504 650 504 686 q 500 610 504 631 l 391 102 z "},"ឝ":{"ha":1085,"x_min":213,"x_max":1085,"o":"m 456 711 q 374 748 417 733 q 283 769 330 764 l 237 775 q 435 899 376 852 q 523 982 494 946 q 570 1017 552 1017 q 644 956 589 1017 l 697 894 l 767 956 l 802 987 q 856 1017 836 1017 q 895 984 877 1017 q 962 898 913 951 q 1048 814 1010 845 q 1085 767 1085 783 q 1066 758 1085 758 q 1036 761 1055 758 q 914 819 988 770 q 818 905 841 869 l 668 772 l 559 897 l 436 800 l 477 761 q 509 713 509 730 q 506 705 509 709 q 492 698 501 698 q 456 711 478 698 m 741 248 q 712 317 712 275 q 814 387 712 373 q 811 365 811 375 q 816 342 811 353 q 844 317 823 326 l 852 352 q 860 423 860 391 q 858 454 860 439 q 825 524 852 498 q 610 576 774 576 q 463 545 511 576 q 406 460 416 513 l 354 221 q 543 339 461 339 q 644 271 644 339 q 543 203 644 203 q 524 237 543 237 q 416 138 506 237 l 327 39 q 271 0 294 0 q 213 38 213 0 q 214 51 213 44 l 304 475 q 402 627 326 576 q 610 678 479 678 q 787 656 713 678 q 903 591 860 635 q 958 481 946 547 q 963 427 963 456 q 951 329 963 382 l 947 307 q 1018 326 988 311 q 1085 407 1068 351 q 1050 264 1085 314 q 925 203 1010 207 l 897 68 q 834 0 882 0 q 753 24 787 0 q 727 64 727 42 q 729 78 727 71 q 772 117 739 109 q 821 201 804 126 l 823 212 q 763 233 787 218 q 741 248 751 239 z "},"ឞ":{"ha":1085,"x_min":172,"x_max":1187,"o":"m 741 541 q 843 610 741 596 q 840 589 840 598 q 844 569 840 578 q 891 534 853 543 l 912 633 q 914 649 914 641 q 880 723 914 686 q 746 774 837 768 q 906 900 846 832 q 995 1017 966 968 q 1093 910 1044 944 q 1174 881 1134 881 q 1187 882 1181 881 l 1155 859 q 1069 833 1120 835 l 1063 833 q 983 872 1017 833 l 921 806 q 1001 718 979 766 q 1015 650 1015 686 q 1011 610 1015 631 l 994 532 q 1055 553 1029 538 q 1114 630 1099 578 q 1086 498 1114 547 q 972 428 1051 437 l 932 237 q 827 60 907 119 q 576 0 746 0 q 321 75 407 0 q 257 222 257 130 q 264 288 257 253 l 338 633 q 340 649 340 641 q 306 723 340 686 q 172 774 263 768 q 332 900 272 832 q 421 1017 393 968 q 525 913 470 944 q 587 896 554 896 q 647 909 615 896 q 517 833 589 836 l 507 833 q 409 872 442 833 l 347 806 q 427 718 405 766 q 441 650 441 686 q 437 610 441 631 l 366 271 q 361 229 361 248 q 396 144 361 175 q 576 102 444 102 q 764 140 712 102 q 832 254 816 178 l 869 431 q 792 456 822 438 q 741 541 745 482 z "},"ស":{"ha":1527,"x_min":228,"x_max":1628,"o":"m 817 648 q 843 625 831 637 q 899 515 886 581 q 903 461 903 490 q 892 363 903 416 l 865 237 q 861 208 861 222 q 897 136 861 162 q 1050 102 943 102 q 1200 140 1144 102 q 1272 254 1255 178 l 1352 633 q 1354 649 1354 641 q 1319 723 1354 686 q 1185 774 1276 768 q 1345 900 1285 832 q 1434 1017 1406 968 q 1532 910 1483 944 q 1615 881 1573 881 q 1628 882 1622 881 l 1594 859 q 1509 833 1560 835 l 1503 833 q 1422 872 1456 833 l 1360 806 q 1440 718 1418 766 q 1455 650 1455 686 q 1451 610 1455 631 l 1371 237 q 1266 60 1346 119 q 1050 0 1185 0 q 809 64 880 0 q 757 190 757 111 q 764 254 757 220 l 792 386 q 800 457 800 425 q 798 488 800 473 q 766 557 792 532 q 598 610 714 610 q 471 579 519 610 q 414 494 425 547 l 380 338 q 407 339 393 339 q 475 301 444 339 q 495 242 495 277 q 489 199 495 222 q 405 68 471 136 q 303 0 339 0 q 243 34 267 0 q 228 89 228 55 q 233 136 228 110 l 313 509 q 410 661 334 610 q 598 712 487 712 q 724 692 652 712 q 698 723 715 708 q 481 774 642 771 q 653 887 591 832 q 758 1017 715 942 q 864 916 806 944 q 943 900 897 900 q 1017 909 977 900 q 870 833 959 836 l 857 833 q 745 872 779 833 l 696 824 q 809 723 785 786 q 818 669 818 699 q 817 648 818 659 z "},"ហ":{"ha":1592,"x_min":172,"x_max":1542,"o":"m 898 237 q 793 60 873 119 q 563 0 712 0 q 321 75 407 0 q 257 222 257 130 q 264 288 257 253 l 338 633 q 340 649 340 641 q 306 723 340 686 q 172 774 263 768 q 332 900 272 832 q 421 1017 393 968 q 525 913 470 944 q 587 896 554 896 q 647 909 615 896 q 517 833 589 836 l 507 833 q 409 872 442 833 l 347 806 q 427 718 405 766 q 441 650 441 686 q 437 610 441 631 l 366 271 q 361 229 361 248 q 396 144 361 175 q 563 102 444 102 q 730 140 678 102 q 798 254 782 178 l 918 814 q 1015 966 939 916 q 1223 1017 1092 1017 q 1366 996 1293 1017 q 1482 930 1439 974 q 1537 821 1525 886 q 1542 766 1542 795 q 1531 668 1542 722 l 1404 68 q 1341 0 1389 0 q 1260 24 1294 0 q 1234 64 1234 42 q 1236 78 1234 71 q 1279 117 1246 109 q 1328 201 1312 126 l 1431 691 q 1439 762 1439 730 q 1437 793 1439 779 q 1404 863 1431 837 q 1223 916 1353 916 q 1076 884 1124 916 q 1019 800 1029 852 l 898 237 z "},"ឡ":{"ha":1526,"x_min":312,"x_max":1628,"o":"m 791 498 q 774 453 779 484 l 772 444 q 845 475 840 450 q 846 484 846 480 q 814 509 846 509 q 791 498 800 509 m 727 578 q 814 610 762 610 q 878 602 851 610 q 946 535 933 586 q 949 504 949 521 q 944 456 949 482 q 894 381 934 409 q 749 340 844 346 l 715 186 q 637 42 694 89 q 502 0 585 0 q 363 44 404 0 q 334 128 334 75 q 340 182 334 153 l 355 245 q 355 253 355 249 q 312 279 355 279 q 346 330 319 313 q 418 347 372 347 q 463 285 463 347 q 456 226 463 260 l 444 167 q 441 147 441 156 q 454 115 441 126 q 502 102 469 102 q 583 133 553 102 q 616 203 606 158 l 646 342 q 399 456 471 357 q 351 631 351 524 q 367 766 351 692 q 475 951 393 888 q 712 1017 562 1017 q 979 951 907 1017 q 1023 848 1023 911 q 1018 801 1023 825 q 972 725 1007 751 q 875 699 937 699 q 780 766 780 699 q 863 834 780 834 q 859 811 859 821 q 886 784 859 784 q 918 824 911 784 q 920 838 920 831 q 892 884 920 866 q 712 916 844 916 q 541 867 602 916 q 467 742 484 824 q 456 646 456 690 q 493 519 456 568 q 667 442 544 452 l 673 469 q 727 578 689 543 m 1219 -475 q 1154 -543 1205 -543 q 1052 -500 1101 -543 l 936 -393 l 766 -500 q 647 -543 699 -543 q 606 -500 606 -543 q 609 -475 606 -489 l 653 -273 q 659 -224 659 -245 q 643 -176 659 -190 q 617 -113 617 -155 q 677 -60 617 -71 q 705 -57 692 -57 q 764 -81 745 -57 q 781 -139 781 -103 q 777 -182 781 -159 l 729 -401 l 946 -268 l 1125 -429 l 1351 633 q 1353 649 1353 641 q 1318 723 1353 686 q 1185 774 1276 768 q 1345 900 1284 832 q 1434 1017 1405 968 q 1531 910 1482 944 q 1614 881 1573 881 q 1628 882 1621 881 l 1594 859 q 1508 833 1559 835 l 1502 833 q 1421 872 1455 833 l 1360 806 q 1440 718 1417 766 q 1454 650 1454 686 q 1450 610 1454 631 l 1219 -475 z "},"អ":{"ha":1090,"x_min":121,"x_max":1192,"o":"m 896 543 l 915 633 q 917 649 917 641 q 882 723 917 686 q 749 774 840 768 q 909 900 848 832 q 998 1017 969 968 q 1095 910 1046 944 q 1178 881 1137 881 q 1192 882 1185 881 l 1158 859 q 1072 833 1123 835 l 1066 833 q 985 872 1019 833 l 924 806 q 1004 718 981 766 q 1018 650 1018 686 q 1014 610 1018 631 l 905 102 q 869 17 891 33 q 825 0 848 0 q 732 100 774 0 q 696 241 696 182 q 698 264 696 253 q 751 341 707 328 q 810 349 778 349 q 854 346 831 349 l 874 441 l 403 441 l 330 102 q 294 17 316 33 q 250 0 273 0 q 157 100 199 0 q 121 241 121 182 q 123 264 121 253 q 176 351 132 328 q 225 364 203 364 q 254 358 241 364 q 279 346 267 352 l 340 633 q 342 649 342 641 q 308 723 342 686 q 174 774 265 768 q 334 900 274 832 q 423 1017 395 968 q 527 913 472 944 q 589 896 556 896 q 649 909 617 896 q 519 833 591 836 l 509 833 q 411 872 444 833 l 349 806 q 429 718 407 766 q 444 650 444 686 q 439 610 444 631 l 425 543 l 896 543 z "},"ឣ":{"ha":1090,"x_min":121,"x_max":1192,"o":"m 896 543 l 915 633 q 917 649 917 641 q 882 723 917 686 q 749 774 840 768 q 909 900 848 832 q 998 1017 969 968 q 1095 910 1046 944 q 1178 881 1137 881 q 1192 882 1185 881 l 1158 859 q 1072 833 1123 835 l 1066 833 q 985 872 1019 833 l 924 806 q 1004 718 981 766 q 1018 650 1018 686 q 1014 610 1018 631 l 905 102 q 869 17 891 33 q 825 0 848 0 q 732 100 774 0 q 696 241 696 182 q 698 264 696 253 q 751 341 707 328 q 810 349 778 349 q 854 346 831 349 l 874 441 l 403 441 l 330 102 q 294 17 316 33 q 250 0 273 0 q 157 100 199 0 q 121 241 121 182 q 123 264 121 253 q 176 351 132 328 q 225 364 203 364 q 254 358 241 364 q 279 346 267 352 l 340 633 q 342 649 342 641 q 308 723 342 686 q 174 774 265 768 q 334 900 274 832 q 423 1017 395 968 q 527 913 472 944 q 589 896 556 896 q 649 909 617 896 q 519 833 591 836 l 509 833 q 411 872 444 833 l 349 806 q 429 718 407 766 q 444 650 444 686 q 439 610 444 631 l 425 543 l 896 543 z "},"ឤ":{"ha":1628,"x_min":122,"x_max":1567,"o":"m 956 770 q 1004 714 982 760 q 1019 650 1019 685 q 1015 610 1019 631 l 906 102 q 870 17 892 33 q 825 0 848 0 q 732 100 775 0 q 697 241 697 182 q 699 264 697 253 q 752 341 708 328 q 811 349 779 349 q 854 346 831 349 l 875 441 l 404 441 l 331 102 q 295 17 317 33 q 250 0 273 0 q 157 100 200 0 q 122 241 122 182 q 123 264 122 253 q 177 351 133 328 q 226 364 203 364 q 255 358 241 364 q 279 346 268 352 l 341 633 q 343 649 343 641 q 309 723 343 686 q 175 774 266 768 q 335 900 275 832 q 424 1017 395 968 q 528 913 473 944 q 589 896 557 896 q 650 909 618 896 q 519 833 591 836 l 509 833 q 412 872 445 833 l 350 806 q 430 718 408 766 q 444 650 444 686 q 440 610 444 631 l 426 543 l 897 543 l 916 633 q 918 649 918 641 q 883 720 918 685 q 793 750 852 750 q 746 746 772 750 l 1206 1017 l 1495 819 q 1552 757 1539 789 q 1567 701 1565 724 l 1567 690 q 1563 652 1567 672 l 1439 68 q 1376 0 1424 0 q 1295 24 1329 0 q 1269 64 1269 42 q 1271 78 1269 71 q 1314 117 1281 109 q 1363 201 1347 126 l 1461 662 q 1463 686 1463 675 q 1440 734 1463 718 l 1189 905 l 956 770 z "},"ឥ":{"ha":1085,"x_min":227,"x_max":1125,"o":"m 330 102 q 429 148 390 102 q 478 239 468 193 q 481 266 481 254 q 469 294 481 288 q 420 305 450 305 q 361 252 372 305 l 330 102 m 304 475 q 402 627 326 576 q 610 678 479 678 q 787 656 713 678 q 903 591 860 635 q 958 481 946 547 q 963 427 963 456 q 951 329 963 382 l 897 68 q 834 0 882 0 q 753 24 787 0 q 727 64 727 42 q 729 78 727 71 q 772 117 739 109 q 821 201 804 126 l 852 352 q 860 423 860 391 q 858 454 860 439 q 825 524 852 498 q 610 576 774 576 q 463 545 511 576 q 406 460 416 513 l 393 406 q 420 407 406 407 q 531 381 491 407 q 582 272 582 347 q 578 225 582 250 q 490 69 563 138 q 330 0 416 0 q 242 34 267 0 q 227 90 227 55 q 233 136 227 111 l 304 475 m 456 711 q 374 748 417 733 q 283 769 330 764 l 237 775 q 435 899 376 852 q 523 982 494 946 q 570 1017 552 1017 q 644 956 589 1017 q 718 900 676 919 q 814 882 761 882 q 943 945 889 882 q 1032 1135 998 1008 q 1059 1196 1044 1178 q 1086 1210 1072 1210 q 1096 1208 1091 1210 q 1122 1180 1117 1202 q 1125 1160 1125 1171 q 1119 1118 1125 1142 q 1006 865 1082 949 q 814 780 930 780 q 674 809 738 780 q 566 888 610 838 l 448 789 l 477 761 q 509 713 509 730 q 506 705 509 709 q 492 698 501 698 q 456 711 478 698 z "},"ឦ":{"ha":1594,"x_min":135,"x_max":1622,"o":"m 329 102 q 429 148 389 102 q 477 239 467 193 q 481 266 481 254 q 469 294 481 288 q 420 305 450 305 q 360 252 372 305 l 329 102 m 230 -453 q 297 -435 273 -453 q 336 -385 320 -417 q 342 -360 342 -370 q 333 -344 342 -349 q 300 -334 315 -334 q 245 -381 256 -334 l 230 -453 m 393 406 q 420 407 406 407 q 530 381 490 407 q 581 272 581 347 q 577 225 581 250 q 489 69 562 138 q 329 0 416 0 q 241 34 266 0 q 227 90 227 55 q 232 136 227 111 l 376 814 q 474 966 398 916 q 682 1017 551 1017 q 859 996 785 1017 q 975 930 932 974 q 1030 821 1018 886 q 1035 766 1035 795 q 1023 668 1035 722 l 896 68 q 833 0 881 0 q 752 24 786 0 q 726 64 726 42 q 728 78 726 71 q 771 117 739 109 q 820 201 804 126 l 924 691 q 932 762 932 730 q 930 793 932 779 q 897 863 924 837 q 682 916 846 916 q 535 884 583 916 q 477 800 488 852 l 393 406 m 1488 1206 q 1221 1289 1423 1289 l 985 1289 l 954 1199 q 903 1145 935 1145 q 883 1149 893 1145 q 851 1195 851 1162 q 859 1234 851 1212 l 1013 1669 q 1065 1718 1032 1718 q 1084 1714 1074 1718 q 1116 1670 1116 1702 q 1109 1638 1116 1656 l 1022 1390 l 1221 1390 q 1575 1276 1485 1390 q 1622 1128 1622 1217 q 1611 1035 1622 1085 l 1310 -385 q 1219 -496 1295 -456 q 949 -543 1128 -543 q 750 -491 822 -543 q 689 -543 737 -543 q 653 -507 653 -543 q 657 -478 653 -494 l 692 -338 q 697 -298 697 -318 q 694 -264 697 -281 q 664 -203 688 -226 q 464 -157 616 -157 q 328 -184 372 -157 q 277 -246 290 -208 q 300 -245 288 -245 q 391 -268 353 -245 q 435 -347 435 -296 q 430 -386 435 -365 q 353 -504 408 -466 q 230 -543 298 -543 q 149 -513 172 -543 q 135 -463 135 -494 q 140 -424 135 -446 l 150 -381 l 149 -381 l 152 -371 l 176 -262 l 176 -262 l 180 -246 q 271 -113 201 -157 q 464 -68 342 -68 q 628 -87 560 -68 q 736 -144 696 -106 q 787 -240 776 -182 q 793 -292 793 -272 l 793 -299 q 784 -357 792 -321 q 779 -378 783 -361 q 949 -441 836 -441 q 1161 -415 1097 -441 q 1209 -370 1203 -397 l 1512 1055 q 1518 1111 1518 1085 q 1488 1206 1518 1168 z "},"ឧ":{"ha":1044,"x_min":241,"x_max":1003,"o":"m 387 5 q 321 28 354 9 q 256 114 275 57 l 242 157 q 241 165 241 160 q 246 201 241 178 q 298 264 253 235 l 736 525 q 844 610 804 565 q 894 706 883 655 q 900 758 900 734 q 895 798 900 780 q 854 863 885 838 q 671 916 791 916 q 532 882 583 916 q 467 783 481 849 q 463 745 463 762 q 473 705 463 720 q 530 678 488 678 q 559 686 559 678 q 546 699 559 690 q 526 736 526 712 q 535 773 526 752 q 590 809 551 809 q 630 802 608 809 q 682 726 682 785 q 675 677 682 705 q 530 576 648 576 q 385 633 426 576 q 359 726 359 668 q 368 800 359 760 q 467 963 391 909 q 671 1017 543 1017 q 823 997 749 1017 q 941 935 898 976 q 998 831 985 893 q 1003 775 1003 805 q 993 686 1003 734 q 925 551 978 614 q 783 434 873 488 l 344 171 l 350 155 q 399 107 361 119 q 448 102 420 102 q 634 193 500 102 l 810 313 q 875 373 823 373 q 911 320 911 373 q 903 262 911 296 l 832 -72 q 766 -136 819 -136 q 727 -92 727 -136 q 731 -58 727 -77 l 781 172 l 699 115 q 448 0 536 0 q 387 5 420 0 z "},"ឨ":{"ha":1044,"x_min":239,"x_max":1086,"o":"m 389 5 q 323 28 355 9 q 258 114 277 57 l 243 157 q 242 165 242 160 q 248 201 242 178 q 300 264 254 235 l 737 525 q 845 610 806 565 q 895 706 884 655 q 901 758 901 734 q 897 798 901 780 q 855 863 886 838 q 673 916 793 916 q 534 882 585 916 q 469 783 483 849 q 465 745 465 762 q 474 705 465 720 q 532 678 490 678 q 560 686 560 678 q 547 699 560 690 q 528 736 528 712 q 536 773 528 752 q 591 809 552 809 q 631 802 609 809 q 684 726 684 785 q 677 677 684 705 q 532 576 650 576 q 387 633 427 576 q 361 726 361 668 q 369 800 361 760 q 468 963 392 909 q 673 1017 544 1017 q 825 997 751 1017 q 943 935 899 976 q 999 831 986 893 q 1004 775 1004 805 q 994 686 1004 734 q 926 551 979 614 q 785 434 874 488 l 345 171 l 351 155 q 401 107 363 119 q 449 102 422 102 q 635 193 501 102 l 812 313 q 876 373 824 373 q 912 320 912 373 q 905 262 912 296 l 833 -72 q 768 -136 820 -136 q 728 -92 728 -136 q 732 -58 728 -77 l 782 172 l 700 115 q 449 0 537 0 q 389 5 422 0 m 457 1009 q 375 1046 418 1031 q 285 1067 331 1062 l 239 1074 q 436 1197 377 1150 q 524 1280 496 1244 q 572 1316 553 1316 q 645 1254 590 1316 l 699 1192 l 768 1254 l 803 1285 q 857 1316 837 1316 q 897 1282 878 1316 q 963 1196 915 1249 q 1049 1112 1012 1143 q 1086 1065 1086 1081 q 1067 1056 1086 1056 q 1038 1059 1056 1056 q 916 1118 989 1068 q 819 1203 842 1167 l 669 1071 l 561 1195 l 437 1099 l 479 1059 q 510 1012 510 1029 q 507 1003 510 1007 q 493 996 503 996 q 457 1009 479 996 z "},"ឩ":{"ha":1093,"x_min":241,"x_max":1082,"o":"m 387 5 q 321 28 354 9 q 256 114 275 57 l 242 157 q 241 165 241 160 q 246 201 241 178 q 298 264 253 235 l 736 525 q 844 610 804 565 q 894 706 883 655 q 900 758 900 734 q 895 798 900 780 q 854 863 885 838 q 671 916 791 916 q 532 882 583 916 q 467 783 481 849 q 463 745 463 762 q 473 705 463 720 q 530 678 488 678 q 559 686 559 678 q 546 699 559 690 q 526 736 526 712 q 535 773 526 752 q 590 809 551 809 q 630 802 608 809 q 682 726 682 785 q 675 677 682 705 q 530 576 648 576 q 385 633 426 576 q 359 726 359 668 q 368 800 359 760 q 467 963 391 909 q 671 1017 543 1017 q 823 997 749 1017 q 941 935 898 976 q 998 831 985 893 q 1003 775 1003 805 q 993 686 1003 734 q 925 551 978 614 q 783 434 873 488 l 344 171 l 350 155 q 399 107 361 119 q 448 102 420 102 q 634 193 500 102 l 810 313 q 875 373 823 373 q 911 320 911 373 q 903 262 911 296 l 832 -72 q 766 -136 819 -136 q 727 -92 727 -136 q 731 -58 727 -77 l 781 172 l 699 115 q 448 0 536 0 q 387 5 420 0 m 945 -134 q 906 -85 906 -126 q 909 -58 906 -73 l 980 274 q 1030 331 992 331 q 1044 330 1037 331 q 1082 280 1082 321 q 1079 253 1082 268 l 1009 -79 q 958 -136 997 -136 q 945 -134 951 -136 z "},"ឪ":{"ha":1044,"x_min":242,"x_max":1160,"o":"m 323 28 q 258 114 277 57 l 243 157 q 242 165 242 160 q 248 201 242 178 q 300 264 254 235 l 737 525 q 845 610 806 565 q 895 706 884 655 q 901 758 901 734 q 897 798 901 780 q 855 863 886 838 q 673 916 793 916 q 534 882 585 916 q 469 783 483 849 q 465 745 465 762 q 474 705 465 720 q 532 678 490 678 q 560 686 560 678 q 547 699 560 690 q 528 736 528 712 q 536 773 528 752 q 591 809 552 809 q 631 802 609 809 q 684 726 684 785 q 677 677 684 705 q 532 576 650 576 q 387 633 427 576 q 361 726 361 668 q 369 800 361 760 q 468 963 392 909 q 673 1017 544 1017 q 825 997 751 1017 q 943 935 899 976 q 999 831 986 893 q 1004 775 1004 805 q 994 686 1004 734 q 926 551 979 614 q 785 434 874 488 l 345 171 l 351 155 q 401 107 363 119 q 449 102 422 102 q 635 193 501 102 l 812 313 q 876 373 824 373 q 912 320 912 373 q 905 262 912 296 l 833 -72 q 768 -136 820 -136 q 728 -92 728 -136 q 732 -58 728 -77 l 782 172 l 700 115 q 449 0 537 0 q 389 5 422 0 q 323 28 355 9 m 491 1016 q 409 1053 452 1038 q 319 1074 365 1069 l 273 1080 q 470 1204 411 1157 q 558 1287 530 1251 q 606 1322 587 1322 q 679 1261 624 1322 q 753 1205 711 1224 q 849 1187 796 1187 q 979 1251 924 1187 q 1067 1440 1033 1314 q 1095 1501 1079 1483 q 1122 1515 1107 1515 q 1131 1514 1126 1515 q 1158 1485 1152 1508 q 1160 1465 1160 1476 q 1154 1423 1160 1447 q 1041 1170 1118 1254 q 849 1085 965 1085 q 709 1114 773 1085 q 602 1194 646 1143 l 483 1095 l 513 1066 q 544 1019 544 1036 q 541 1010 544 1014 q 527 1003 536 1003 q 491 1016 513 1003 z "},"ឫ":{"ha":1085,"x_min":136,"x_max":1187,"o":"m 338 633 q 340 649 340 641 q 306 723 340 686 q 172 774 263 768 q 332 900 272 832 q 421 1017 393 968 q 525 913 470 944 q 587 896 554 896 q 647 909 615 896 q 517 833 589 836 l 507 833 q 409 872 442 833 l 347 806 q 427 718 405 766 q 441 650 441 686 q 437 610 441 631 l 366 271 q 361 229 361 248 q 396 144 361 175 q 576 102 444 102 q 764 140 712 102 q 832 254 816 178 l 912 633 q 914 649 914 641 q 880 723 914 686 q 746 774 837 768 q 906 900 846 832 q 995 1017 966 968 q 1093 910 1044 944 q 1174 881 1134 881 q 1187 882 1181 881 l 1155 859 q 1069 833 1120 835 l 1063 833 q 983 872 1017 833 l 921 806 q 1001 718 979 766 q 1015 650 1015 686 q 1011 610 1015 631 l 932 237 q 827 60 907 119 q 576 0 746 0 q 321 75 407 0 q 257 222 257 130 q 264 288 257 253 l 338 633 m 644 -119 q 705 -68 644 -68 q 814 -111 780 -68 q 837 -187 837 -140 q 831 -240 837 -211 q 664 -429 807 -351 q 271 -509 521 -509 q 136 -475 136 -509 q 314 -424 136 -441 q 604 -347 492 -407 q 730 -226 715 -286 q 732 -202 732 -212 q 705 -170 732 -170 q 644 -119 644 -170 z "},"ឬ":{"ha":1085,"x_min":136,"x_max":1187,"o":"m 338 633 q 340 649 340 641 q 306 723 340 686 q 172 774 263 768 q 332 900 272 832 q 421 1017 393 968 q 525 913 470 944 q 587 896 554 896 q 647 909 615 896 q 517 833 589 836 l 507 833 q 409 872 442 833 l 347 806 q 427 718 405 766 q 441 650 441 686 q 437 610 441 631 l 366 271 q 361 229 361 248 q 396 144 361 175 q 576 102 444 102 q 764 140 712 102 q 832 254 816 178 l 912 633 q 914 649 914 641 q 880 723 914 686 q 746 774 837 768 q 906 900 846 832 q 995 1017 966 968 q 1093 910 1044 944 q 1174 881 1134 881 q 1187 882 1181 881 l 1155 859 q 1069 833 1120 835 l 1063 833 q 983 872 1017 833 l 921 806 q 1001 718 979 766 q 1015 650 1015 686 q 1011 610 1015 631 l 932 237 q 827 60 907 119 q 576 0 746 0 q 321 75 407 0 q 257 222 257 130 q 264 288 257 253 l 338 633 m 722 -392 q 664 -429 696 -411 q 271 -509 521 -509 q 136 -475 136 -509 q 314 -424 136 -441 q 604 -347 492 -407 q 730 -226 715 -286 q 732 -202 732 -212 q 705 -170 732 -170 q 644 -119 644 -170 q 705 -68 644 -68 q 814 -111 780 -68 q 837 -186 837 -140 q 836 -203 837 -195 q 915 -175 870 -186 q 824 -264 852 -227 q 802 -310 816 -288 q 799 -335 799 -323 q 808 -378 799 -357 q 869 -427 825 -419 q 924 -473 924 -433 q 923 -482 924 -477 q 864 -524 916 -524 q 740 -444 778 -515 q 722 -392 726 -418 z "},"ឭ":{"ha":1153,"x_min":203,"x_max":1095,"o":"m 712 -119 q 773 -68 712 -68 q 882 -111 848 -68 q 905 -187 905 -140 q 899 -240 905 -211 q 732 -429 875 -351 q 339 -509 589 -509 q 203 -475 203 -509 q 382 -424 203 -441 q 671 -347 559 -407 q 798 -226 783 -286 q 800 -202 800 -212 q 773 -170 800 -170 q 712 -119 712 -170 m 330 102 q 443 165 370 102 q 513 273 495 210 q 516 300 516 288 q 504 328 516 321 q 441 339 485 339 q 368 286 380 339 l 330 102 m 352 703 q 454 924 387 868 l 498 962 q 610 1017 566 1017 q 710 961 678 1017 l 744 909 q 905 1017 852 1017 q 1019 941 958 1017 q 1091 787 1080 865 q 1095 735 1095 762 q 1078 604 1095 675 l 964 68 q 902 0 949 0 q 821 24 854 0 q 795 64 795 42 q 797 78 795 71 q 840 117 807 109 q 888 201 872 126 l 977 620 q 994 747 994 693 q 994 767 994 758 q 956 871 990 826 q 899 916 920 916 q 726 780 878 916 q 610 916 640 916 q 549 886 579 913 l 519 858 q 453 682 481 818 l 400 431 q 441 441 420 441 q 542 424 512 441 q 616 296 616 380 q 612 259 616 279 q 503 86 590 155 q 330 0 396 0 q 242 34 267 0 q 227 90 227 55 q 233 136 227 111 l 352 703 z "},"ឮ":{"ha":1153,"x_min":136,"x_max":1095,"o":"m 722 -392 q 664 -429 696 -411 q 271 -509 521 -509 q 136 -475 136 -509 q 314 -424 136 -441 q 604 -347 492 -407 q 730 -226 715 -286 q 732 -202 732 -212 q 705 -170 732 -170 q 644 -119 644 -170 q 705 -68 644 -68 q 814 -111 780 -68 q 837 -186 837 -140 q 836 -203 837 -195 q 915 -175 870 -186 q 824 -264 852 -227 q 802 -310 816 -288 q 799 -335 799 -323 q 808 -378 799 -357 q 869 -427 825 -419 q 924 -473 924 -433 q 923 -482 924 -477 q 864 -524 916 -524 q 740 -444 778 -515 q 722 -392 726 -418 m 330 102 q 443 165 370 102 q 513 273 495 210 q 516 300 516 288 q 504 328 516 321 q 441 339 485 339 q 368 286 380 339 l 330 102 m 352 703 q 454 924 387 868 l 498 962 q 610 1017 566 1017 q 710 961 678 1017 l 744 909 q 905 1017 852 1017 q 1019 941 958 1017 q 1091 787 1080 865 q 1095 735 1095 762 q 1078 604 1095 675 l 964 68 q 902 0 949 0 q 821 24 854 0 q 795 64 795 42 q 797 78 795 71 q 840 117 807 109 q 888 201 872 126 l 977 620 q 994 747 994 693 q 994 767 994 758 q 956 871 990 826 q 899 916 920 916 q 726 780 878 916 q 610 916 640 916 q 549 886 579 913 l 519 858 q 453 682 481 818 l 400 431 q 441 441 420 441 q 542 424 512 441 q 616 296 616 380 q 612 259 616 279 q 503 86 590 155 q 330 0 396 0 q 242 34 267 0 q 227 90 227 55 q 233 136 227 111 l 352 703 z "},"ឯ":{"ha":1085,"x_min":215,"x_max":1022,"o":"m 520 1004 q 678 1017 586 1017 q 979 899 911 1017 q 1022 721 1022 823 q 1008 593 1022 662 l 896 68 q 830 0 882 0 q 728 43 778 0 l 578 170 l 375 43 q 256 0 307 0 q 215 42 215 0 q 218 68 215 54 l 311 507 q 313 519 313 513 q 285 559 313 546 q 259 606 259 572 q 261 627 259 616 q 339 678 271 678 q 414 642 391 678 q 425 589 425 624 q 412 489 425 549 l 338 141 l 589 295 l 802 113 l 907 610 q 919 712 919 666 q 888 836 919 787 q 678 916 839 916 q 354 840 421 916 q 321 814 332 814 q 314 827 314 814 q 318 854 314 837 q 401 956 327 895 q 409 962 405 959 l 422 1022 q 427 1067 427 1043 q 375 1264 427 1149 q 355 1331 355 1306 q 375 1365 355 1357 q 390 1368 382 1368 q 454 1305 423 1368 q 529 1071 529 1169 q 524 1025 529 1046 l 520 1004 z "},"ឰ":{"ha":1153,"x_min":203,"x_max":1095,"o":"m 534 -286 q 318 -368 426 -338 q 429 -441 385 -441 q 510 -408 471 -441 q 536 -322 536 -385 q 534 -286 536 -305 m 330 102 q 443 165 370 102 q 513 273 495 210 q 516 300 516 288 q 504 328 516 321 q 441 339 485 339 q 368 286 380 339 l 330 102 m 654 -222 q 720 -234 693 -234 q 751 -229 739 -234 q 807 -120 774 -218 q 654 -222 730 -176 m 826 20 q 888 201 846 35 l 977 620 q 994 747 994 693 q 994 767 994 758 q 956 871 990 826 q 899 916 920 916 q 726 780 878 916 q 610 916 640 916 q 549 886 579 913 l 519 858 q 453 682 481 818 l 400 431 q 441 441 420 441 q 542 424 512 441 q 616 296 616 380 q 612 259 616 279 q 503 86 590 155 q 330 0 396 0 q 242 34 267 0 q 227 90 227 55 q 233 136 227 111 l 352 703 q 454 924 387 868 l 498 962 q 610 1017 566 1017 q 710 961 678 1017 l 744 909 q 905 1017 852 1017 q 1019 941 958 1017 q 1091 787 1080 865 q 1095 735 1095 762 q 1078 604 1095 675 l 964 68 q 918 -112 960 50 q 804 -313 876 -274 q 728 -332 768 -332 q 629 -306 681 -332 q 639 -363 639 -336 q 587 -475 639 -427 q 441 -543 513 -543 q 286 -488 368 -543 q 203 -372 203 -433 q 294 -280 203 -312 q 826 20 552 -191 z "},"ឱ":{"ha":1044,"x_min":241,"x_max":1055,"o":"m 321 28 q 256 114 275 57 l 242 157 q 241 165 241 160 q 246 201 241 178 q 298 264 253 235 l 736 525 q 844 610 804 565 q 894 706 883 655 q 900 758 900 734 q 895 798 900 780 q 854 863 885 838 q 671 916 791 916 q 532 882 583 916 q 467 783 481 849 q 463 745 463 762 q 473 705 463 720 q 530 678 488 678 q 559 686 559 678 q 546 699 559 690 q 526 736 526 712 q 535 773 526 752 q 590 809 551 809 q 630 802 608 809 q 682 726 682 785 q 675 677 682 705 q 530 576 648 576 q 385 633 426 576 q 359 726 359 668 q 368 800 359 760 q 467 963 391 909 q 671 1017 543 1017 q 823 997 749 1017 q 941 935 898 976 q 998 831 985 893 q 1003 775 1003 805 q 993 686 1003 734 q 925 551 978 614 q 783 434 873 488 l 344 171 l 350 155 q 399 107 361 119 q 448 102 420 102 q 634 193 500 102 l 810 313 q 875 373 823 373 q 911 320 911 373 q 903 262 911 296 l 832 -72 q 766 -136 819 -136 q 727 -92 727 -136 q 731 -58 727 -77 l 781 172 l 699 115 q 448 0 536 0 q 387 5 420 0 q 321 28 354 9 m 724 1040 q 548 1101 665 1101 q 516 1101 532 1101 q 339 1041 375 1091 q 448 1288 350 1219 q 652 1356 545 1356 q 867 1304 760 1356 q 1033 1133 973 1251 q 1055 1009 1055 1082 q 1043 981 1055 981 q 979 1054 1025 981 q 821 1214 902 1173 q 635 1255 739 1255 q 484 1181 532 1255 q 560 1185 526 1185 q 713 1147 677 1185 q 739 1088 739 1120 q 724 1040 739 1065 z "},"ឲ":{"ha":1085,"x_min":267,"x_max":1061,"o":"m 512 976 q 712 1017 591 1017 q 1000 950 928 1017 q 1061 847 1061 891 q 1059 833 1061 840 q 1042 812 1055 812 q 996 850 1025 812 q 712 916 945 916 q 568 887 625 916 q 468 750 488 846 l 374 311 q 370 268 370 288 q 410 161 370 206 q 610 102 465 102 q 754 142 692 102 q 831 252 816 182 q 832 267 832 259 q 766 336 832 311 l 688 364 l 631 340 q 595 331 611 331 q 555 358 568 331 q 550 378 550 368 q 597 431 550 408 l 805 524 q 901 589 895 564 q 902 597 902 593 q 876 663 902 621 q 782 712 844 712 q 703 688 720 712 q 693 661 693 676 q 701 629 693 646 q 709 599 709 612 q 682 560 709 573 q 659 554 669 554 q 606 595 629 554 q 590 670 590 636 q 621 753 590 718 q 793 814 675 814 q 965 729 911 814 q 1007 606 1007 661 q 1004 576 1007 591 q 840 448 989 509 l 793 427 q 937 277 937 385 q 932 237 937 258 q 815 60 907 119 q 610 0 723 0 q 332 98 418 0 q 267 264 267 171 q 274 328 267 295 l 369 772 q 512 976 399 916 z "},"ឳ":{"ha":1044,"x_min":241,"x_max":1143,"o":"m 321 28 q 256 114 275 57 l 242 157 q 241 165 241 160 q 246 201 241 178 q 298 264 253 235 l 736 525 q 844 610 804 565 q 894 706 883 655 q 900 758 900 734 q 895 798 900 780 q 854 863 885 838 q 671 916 791 916 q 532 882 583 916 q 467 783 481 849 q 463 745 463 762 q 473 705 463 720 q 530 678 488 678 q 559 686 559 678 q 546 699 559 690 q 526 736 526 712 q 535 773 526 752 q 590 809 551 809 q 630 802 608 809 q 682 726 682 785 q 675 677 682 705 q 530 576 648 576 q 385 633 426 576 q 359 726 359 668 q 368 800 359 760 q 467 963 391 909 q 671 1017 543 1017 q 823 997 749 1017 q 941 935 898 976 q 998 831 985 893 q 1003 775 1003 805 q 993 686 1003 734 q 925 551 978 614 q 783 434 873 488 l 344 171 l 350 155 q 399 107 361 119 q 448 102 420 102 q 634 193 500 102 l 810 313 q 875 373 823 373 q 911 320 911 373 q 903 262 911 296 l 832 -72 q 766 -136 819 -136 q 727 -92 727 -136 q 731 -58 727 -77 l 781 172 l 699 115 q 448 0 536 0 q 387 5 420 0 q 321 28 354 9 m 684 1166 q 713 1147 703 1158 q 739 1088 739 1120 q 724 1040 739 1065 q 634 1091 689 1076 q 546 1101 595 1101 q 516 1101 532 1101 q 339 1041 375 1091 q 448 1288 350 1219 q 652 1356 545 1356 q 867 1304 760 1356 q 925 1267 898 1289 q 932 1274 928 1271 q 1059 1353 979 1322 q 1099 1362 1082 1362 q 1139 1337 1128 1362 q 1143 1320 1143 1328 q 1099 1270 1143 1291 q 1004 1204 1037 1242 q 996 1194 1000 1199 q 1033 1133 1017 1166 q 1055 1009 1055 1082 q 1048 978 1055 985 q 995 947 1021 947 q 964 957 979 947 q 881 1062 903 1005 q 870 1123 870 1091 q 876 1171 870 1146 q 877 1175 877 1173 q 821 1214 849 1200 q 635 1255 739 1255 q 484 1181 532 1255 q 559 1185 525 1185 q 684 1166 642 1185 z "},"ា":{"ha":119,"x_min":-345,"x_max":268,"o":"m -71 905 q -326 790 -271 790 q -345 798 -340 790 q -54 1017 -344 849 l 197 846 q 254 783 241 816 q 268 728 267 751 l 268 717 q 264 679 268 699 l 135 68 q 72 0 120 0 q -9 24 24 0 q -35 64 -35 42 q -33 78 -35 71 q 9 117 -23 109 q 59 201 43 126 l 162 688 q 165 713 165 701 q 142 760 165 745 l -71 905 z "},"ិ":{"ha":0,"x_min":-604,"x_max":-1,"o":"m -478 1544 q -502 1510 -500 1531 q -503 1502 -503 1506 q -495 1479 -503 1486 q -471 1470 -488 1471 l -156 1442 q -395 1556 -305 1548 q -418 1557 -408 1557 q -478 1544 -458 1557 m -572 1424 q -604 1501 -604 1451 q -603 1519 -604 1510 q -547 1626 -597 1590 q -425 1659 -503 1659 q -387 1657 -407 1659 q -240 1604 -319 1651 q -80 1488 -161 1557 q -1 1387 -1 1421 q -2 1385 -1 1386 q -54 1356 -4 1356 q -73 1357 -62 1356 l -478 1393 q -572 1424 -540 1398 z "},"ី":{"ha":0,"x_min":-604,"x_max":45,"o":"m -479 1544 q -502 1510 -500 1531 q -503 1502 -503 1506 q -495 1479 -503 1486 q -471 1470 -488 1471 l -156 1442 q -396 1556 -305 1548 q -419 1557 -408 1557 q -479 1544 -458 1557 m -83 1491 l -60 1603 q -58 1613 -58 1608 q -86 1643 -58 1637 q -27 1697 -74 1697 q -5 1695 -17 1697 q 45 1624 45 1684 q 39 1581 45 1605 l -2 1388 q -27 1361 -6 1367 q -60 1356 -43 1356 q -73 1357 -66 1356 l -478 1392 q -572 1424 -541 1398 q -604 1501 -604 1451 q -603 1519 -604 1510 q -547 1626 -597 1590 q -425 1659 -503 1659 q -387 1657 -407 1659 q -240 1604 -319 1651 q -83 1491 -163 1558 z "},"ឹ":{"ha":0,"x_min":-604,"x_max":16,"o":"m -478 1544 q -502 1510 -500 1531 q -503 1502 -503 1506 q -495 1479 -503 1486 q -471 1470 -488 1471 l -156 1442 q -395 1556 -305 1548 q -418 1557 -408 1557 q -478 1544 -458 1557 m -63 1617 q -100 1632 -75 1630 q -109 1632 -104 1632 q -138 1623 -127 1632 q -155 1586 -153 1611 l -155 1578 q -146 1547 -155 1558 q -109 1531 -134 1533 l -101 1531 q -68 1540 -81 1531 q -54 1577 -56 1552 q -53 1586 -53 1581 q -63 1617 -53 1605 m -57 1467 q -2 1388 -2 1416 l -2 1385 q -54 1356 -4 1356 q -73 1357 -62 1356 l -478 1393 q -572 1424 -540 1398 q -604 1501 -604 1451 q -603 1519 -604 1510 q -547 1626 -597 1590 q -425 1659 -503 1659 q -387 1657 -407 1659 q -240 1604 -319 1651 q -222 1593 -231 1598 q -184 1678 -216 1651 q -113 1700 -158 1700 q -94 1699 -103 1700 q -7 1662 -35 1694 q 16 1590 16 1636 q 14 1571 16 1581 q -22 1485 9 1512 q -57 1467 -37 1473 z "},"ឺ":{"ha":0,"x_min":-604,"x_max":45,"o":"m -479 1544 q -502 1510 -500 1531 q -503 1502 -503 1506 q -495 1479 -503 1486 q -471 1470 -488 1471 l -156 1442 q -396 1556 -305 1548 q -419 1557 -408 1557 q -479 1544 -458 1557 m -241 1605 l -231 1649 q -229 1659 -229 1654 q -264 1689 -229 1683 q -199 1746 -248 1746 q -182 1745 -191 1746 q -138 1686 -138 1737 q -146 1634 -138 1664 l -167 1556 q -83 1491 -125 1527 l -60 1603 q -58 1613 -58 1608 q -86 1643 -58 1637 q -27 1697 -74 1697 q -5 1695 -17 1697 q 45 1624 45 1684 q 39 1581 45 1605 l -2 1388 q -27 1361 -6 1367 q -60 1356 -43 1356 q -73 1357 -66 1356 l -478 1392 q -572 1424 -541 1398 q -604 1501 -604 1451 q -603 1519 -604 1510 q -547 1626 -597 1590 q -425 1659 -503 1659 q -387 1657 -407 1659 q -241 1605 -320 1651 z "},"ុ":{"ha":0,"x_min":-338,"x_max":-163,"o":"m -300 -541 q -338 -490 -338 -532 q -336 -464 -338 -478 l -281 -207 q -280 -200 -280 -203 q -300 -165 -280 -183 q -316 -127 -316 -149 q -313 -105 -316 -117 q -250 -68 -302 -68 q -178 -94 -198 -68 q -163 -136 -163 -113 q -165 -153 -163 -144 l -236 -485 q -286 -542 -248 -542 q -300 -541 -292 -542 z "},"ូ":{"ha":0,"x_min":-644,"x_max":-111,"o":"m -480 -68 q -427 -90 -448 -68 q -407 -168 -407 -113 q -475 -294 -407 -222 q -543 -400 -543 -366 q -461 -441 -543 -441 q -330 -288 -393 -441 q -235 -101 -266 -134 q -157 -68 -203 -68 q -111 -88 -111 -68 q -140 -123 -111 -109 q -238 -340 -170 -137 q -461 -543 -307 -543 q -644 -400 -644 -543 q -576 -280 -644 -340 q -509 -203 -509 -221 q -529 -168 -509 -181 q -549 -132 -549 -156 q -531 -87 -549 -107 q -480 -68 -513 -68 z "},"ួ":{"ha":0,"x_min":-678,"x_max":-111,"o":"m -514 -68 q -461 -90 -482 -68 q -441 -168 -441 -113 q -509 -294 -441 -222 q -576 -400 -576 -366 q -549 -441 -576 -441 q -378 -288 -495 -441 l -378 -301 q -326 -441 -378 -441 q -258 -288 -292 -441 q -194 -101 -225 -134 q -130 -68 -163 -68 q -111 -88 -111 -68 q -120 -123 -111 -109 q -165 -301 -129 -137 q -326 -543 -218 -543 q -423 -435 -401 -543 q -549 -543 -502 -543 q -678 -400 -678 -543 q -610 -280 -678 -340 q -543 -203 -543 -221 q -563 -168 -543 -181 q -583 -132 -583 -156 q -565 -87 -583 -107 q -514 -68 -547 -68 z "},"ើ":{"ha":0,"x_min":-604,"x_max":45,"o":"m -479 1544 q -502 1510 -500 1531 q -503 1502 -503 1506 q -495 1479 -503 1486 q -471 1470 -488 1471 l -156 1442 q -396 1556 -305 1548 q -419 1557 -408 1557 q -479 1544 -458 1557 m -83 1491 l -60 1603 q -58 1613 -58 1608 q -86 1643 -58 1637 q -27 1697 -74 1697 q -5 1695 -17 1697 q 45 1624 45 1684 q 39 1581 45 1605 l -2 1388 q -27 1361 -6 1367 q -60 1356 -43 1356 q -73 1357 -66 1356 l -478 1392 q -572 1424 -541 1398 q -604 1501 -604 1451 q -603 1519 -604 1510 q -547 1626 -597 1590 q -425 1659 -503 1659 q -387 1657 -407 1659 q -240 1604 -319 1651 q -83 1491 -163 1558 z "},"ឿ":{"ha":511,"x_min":-397,"x_max":559,"o":"m -80 1565 q -104 1532 -102 1552 q -104 1522 -104 1527 q -98 1501 -104 1507 q -74 1491 -90 1493 l 241 1459 q 3 1576 93 1567 q -24 1577 -12 1577 q -80 1565 -60 1577 m 445 1396 q 541 1285 510 1346 q 559 1201 559 1246 q 553 1145 559 1175 l 218 -432 q 114 -616 192 -555 q -91 -678 37 -678 q -355 -600 -283 -678 q -397 -480 -397 -553 q -390 -413 -397 -449 l -350 -228 q -298 -140 -336 -160 q -270 -134 -285 -134 q -210 -156 -242 -134 q -172 -210 -172 -182 q -176 -229 -172 -220 q -226 -277 -193 -268 q -271 -337 -258 -286 l -290 -434 q -294 -465 -294 -450 q -267 -530 -294 -505 q -91 -576 -221 -576 q 46 -536 -5 -576 q 117 -410 100 -494 l 454 1168 q 456 1193 456 1180 q 383 1335 456 1261 l 342 1375 l 272 1379 l -82 1414 q -176 1447 -144 1420 q -206 1524 -206 1472 q -205 1542 -206 1533 q -149 1648 -198 1612 q -28 1679 -104 1679 q 13 1677 -9 1679 q 159 1622 80 1670 q 203 1593 181 1609 l 229 1676 q 232 1691 232 1684 q 207 1719 232 1712 q 258 1771 224 1771 q 277 1768 267 1771 q 306 1718 306 1758 q 294 1655 306 1693 l 260 1551 q 317 1504 289 1529 q 348 1476 334 1489 l 399 1638 q 401 1653 401 1646 q 377 1680 401 1672 q 429 1732 394 1732 q 446 1729 437 1732 q 475 1681 475 1720 q 463 1617 475 1655 l 406 1433 l 445 1396 z "},"ៀ":{"ha":511,"x_min":-397,"x_max":557,"o":"m 218 -432 q 114 -616 192 -555 q -91 -678 37 -678 q -355 -600 -283 -678 q -397 -480 -397 -553 q -390 -413 -397 -449 l -350 -228 q -298 -140 -336 -160 q -270 -134 -285 -134 q -210 -156 -242 -134 q -172 -210 -172 -182 q -176 -229 -172 -220 q -226 -277 -193 -268 q -271 -337 -258 -286 l -290 -434 q -294 -465 -294 -450 q -267 -530 -294 -505 q -91 -576 -221 -576 q 46 -536 -5 -576 q 117 -410 100 -494 l 450 1155 q 454 1198 454 1175 q 397 1371 454 1276 q 230 1458 337 1458 q 20 1392 90 1458 q -67 1333 -32 1333 q -89 1339 -79 1333 q -104 1367 -104 1349 q -60 1451 -104 1397 l -26 1491 q 94 1773 72 1599 q 153 1831 102 1831 q 184 1767 184 1831 q 174 1668 184 1729 q 142 1556 162 1606 q 230 1560 168 1560 q 484 1441 399 1560 q 557 1213 557 1328 q 549 1135 557 1174 l 218 -432 z "},"េ":{"ha":543,"x_min":228,"x_max":665,"o":"m 380 338 q 407 339 393 339 q 475 301 444 339 q 495 242 495 277 q 489 199 495 222 q 405 68 471 136 q 303 0 339 0 q 243 34 267 0 q 228 89 228 55 q 233 136 228 110 l 407 949 q 473 1017 421 1017 q 528 976 524 1017 q 568 880 533 935 q 634 798 603 825 q 665 736 665 770 q 642 724 657 724 q 607 734 627 724 q 524 791 564 755 l 484 826 l 380 338 z "},"ែ":{"ha":543,"x_min":228,"x_max":764,"o":"m 380 338 q 407 339 393 339 q 475 301 444 339 q 495 242 495 277 q 489 199 495 222 q 405 68 471 136 q 303 0 339 0 q 243 34 267 0 q 228 89 228 55 q 233 136 228 110 l 407 949 q 473 1017 421 1017 q 528 976 524 1017 q 568 880 533 935 q 634 798 603 825 q 665 736 665 770 q 642 724 657 724 q 607 734 627 724 q 524 791 564 755 l 484 826 l 380 338 m 663 1540 q 632 1626 659 1598 q 574 1718 574 1686 q 583 1740 574 1731 q 600 1746 590 1746 q 700 1664 634 1746 q 753 1565 737 1617 q 764 1486 764 1527 q 757 1419 764 1453 q 653 1219 731 1297 q 595 1184 627 1184 q 564 1192 581 1184 q 462 1217 499 1217 q 447 1216 454 1217 q 416 1194 423 1212 q 410 1166 410 1178 q 412 1150 410 1157 q 439 1131 418 1137 q 462 1126 450 1126 q 470 1127 466 1126 q 518 1152 495 1130 q 557 1103 557 1129 q 547 1074 557 1088 q 498 1052 532 1055 l 488 1052 q 393 1069 450 1052 q 315 1123 334 1086 q 304 1167 304 1143 q 319 1233 304 1196 q 404 1306 343 1295 q 433 1309 418 1309 q 569 1276 490 1309 q 655 1428 634 1339 q 663 1517 663 1478 q 663 1540 663 1529 z "},"ៃ":{"ha":543,"x_min":228,"x_max":730,"o":"m 380 338 q 407 339 393 339 q 475 301 444 339 q 495 242 495 277 q 489 199 495 222 q 405 68 471 136 q 303 0 339 0 q 243 34 267 0 q 228 89 228 55 q 233 136 228 110 l 407 949 q 473 1017 421 1017 q 528 976 524 1017 q 568 880 533 935 q 634 798 603 825 q 665 736 665 770 q 642 724 657 724 q 607 734 627 724 q 524 791 564 755 l 484 826 l 380 338 m 372 1540 q 372 1517 372 1529 q 380 1428 372 1478 q 466 1276 401 1339 q 602 1309 545 1309 q 631 1306 617 1309 q 716 1233 692 1295 q 730 1167 730 1196 q 720 1123 730 1143 q 642 1069 701 1086 q 547 1052 585 1052 l 537 1052 q 488 1074 503 1055 q 478 1103 478 1088 q 517 1152 478 1129 q 565 1127 540 1130 q 573 1126 569 1126 q 596 1131 585 1126 q 623 1150 616 1137 q 625 1166 625 1157 q 619 1194 625 1178 q 588 1216 612 1212 q 573 1217 581 1217 q 471 1192 536 1217 q 440 1184 454 1184 q 382 1219 408 1184 q 278 1419 304 1297 q 271 1486 271 1453 q 282 1565 271 1527 q 335 1664 298 1617 q 435 1746 401 1746 q 452 1740 445 1746 q 460 1718 460 1731 q 403 1626 460 1686 q 372 1540 376 1598 z "},"ោ":{"ha":508,"x_min":-157,"x_max":456,"o":"m 117 905 q -138 790 -83 790 q -157 798 -153 790 q 134 1017 -156 849 l 385 846 q 441 783 429 816 q 456 728 454 751 l 456 717 q 452 679 456 699 l 323 68 q 260 0 308 0 q 178 24 212 0 q 153 64 153 42 q 155 78 153 71 q 197 117 165 109 q 247 201 231 126 l 350 688 q 353 713 353 701 q 330 760 353 745 l 117 905 z "},"ៅ":{"ha":508,"x_min":-157,"x_max":594,"o":"m -148 791 l -157 804 q 133 1017 -140 859 l 384 846 q 441 783 428 816 q 444 774 443 779 l 490 983 q 505 1114 505 1055 q 503 1159 505 1137 q 471 1260 496 1218 q 427 1355 427 1331 q 433 1367 427 1364 q 437 1368 435 1368 q 537 1280 462 1368 q 585 1177 571 1240 q 594 1080 594 1134 q 581 941 594 1018 l 562 821 q 511 694 541 701 q 488 691 500 691 q 454 694 473 691 q 452 679 453 687 l 322 68 q 259 0 307 0 q 178 24 212 0 q 152 64 152 42 q 154 78 152 71 q 197 117 164 109 q 246 201 230 126 l 349 688 q 352 713 352 701 q 329 760 352 745 l 116 905 q -138 790 -83 790 q -148 791 -144 790 z "},"ំ":{"ha":0,"x_min":-373,"x_max":0,"o":"m -326 1403 q -373 1543 -373 1450 q -326 1683 -373 1636 q -186 1729 -279 1729 q -46 1683 -93 1729 q 0 1543 0 1636 q -46 1403 0 1450 q -186 1356 -93 1356 q -326 1403 -279 1356 m -123 1479 q -102 1543 -102 1501 q -123 1607 -102 1586 q -186 1628 -144 1628 q -250 1607 -229 1628 q -271 1543 -271 1586 q -250 1479 -271 1501 q -186 1458 -229 1458 q -123 1479 -144 1458 z "},"ះ":{"ha":793,"x_min":250,"x_max":760,"o":"m 296 47 q 250 186 250 94 q 296 326 250 280 q 436 373 343 373 q 576 326 530 373 q 623 186 623 280 q 576 47 623 94 q 436 0 530 0 q 296 47 343 0 m 500 123 q 521 186 521 144 q 500 250 521 229 q 436 271 479 271 q 373 250 394 271 q 351 186 351 229 q 373 123 351 144 q 436 102 394 102 q 500 123 479 102 m 433 691 q 387 831 387 738 q 433 970 387 924 q 573 1017 480 1017 q 713 970 667 1017 q 760 831 760 924 q 713 691 760 738 q 573 644 667 644 q 433 691 480 644 m 637 767 q 658 831 658 789 q 637 895 658 873 q 573 916 616 916 q 510 895 531 916 q 488 831 488 873 q 510 767 488 789 q 573 746 531 746 q 637 767 616 746 z "},"ៈ":{"ha":610,"x_min":203,"x_max":585,"o":"m 288 0 q 224 21 245 0 q 203 85 203 42 q 224 149 203 127 q 288 170 245 170 q 352 148 331 170 q 373 84 373 127 q 390 64 373 64 q 441 84 407 64 q 386 21 424 42 q 288 0 347 0 m 433 677 q 369 698 390 677 q 348 762 348 719 q 369 825 348 804 q 433 846 390 846 q 496 825 475 846 q 517 761 517 804 q 534 741 517 741 q 585 761 551 741 q 530 698 568 719 q 433 677 492 677 z "},"៉":{"ha":0,"x_min":-581,"x_max":-157,"o":"m -434 1424 q -506 1152 -486 1185 q -551 1119 -526 1119 q -581 1154 -576 1119 l -581 1163 q -543 1404 -581 1211 q -541 1420 -541 1413 q -547 1436 -541 1432 q -556 1467 -556 1442 q -538 1511 -556 1497 q -484 1526 -520 1526 q -435 1501 -448 1526 q -429 1466 -429 1487 q -434 1424 -429 1448 m -163 1424 q -235 1152 -215 1185 q -279 1119 -254 1119 q -310 1154 -304 1119 q -311 1163 -311 1157 q -271 1404 -311 1211 q -269 1420 -269 1413 q -275 1436 -269 1432 q -285 1467 -285 1442 q -267 1511 -285 1497 q -213 1526 -249 1526 q -164 1501 -177 1526 q -157 1466 -157 1487 q -163 1424 -157 1448 z "},"៊":{"ha":0,"x_min":-800,"x_max":47,"o":"m -602 1162 q -701 1126 -644 1126 q -727 1127 -713 1126 l -800 1137 q -603 1260 -662 1213 q -515 1343 -543 1308 q -467 1379 -486 1379 q -394 1317 -449 1379 l -340 1255 l -271 1317 l -236 1348 q -182 1379 -202 1379 q -142 1345 -161 1379 q -76 1259 -124 1312 q 10 1175 -27 1206 q 47 1128 47 1144 q 28 1119 47 1119 q -1 1122 18 1119 q -123 1181 -50 1131 q -220 1266 -197 1230 l -370 1134 l -478 1258 l -602 1162 z "},"់":{"ha":0,"x_min":-386,"x_max":-233,"o":"m -239 1424 q -311 1152 -291 1185 q -355 1119 -330 1119 q -386 1154 -380 1119 l -386 1163 q -347 1404 -386 1211 q -345 1420 -345 1413 q -351 1436 -345 1432 q -361 1467 -361 1442 q -342 1511 -361 1497 q -289 1526 -325 1526 q -240 1501 -253 1526 q -233 1466 -233 1487 q -239 1424 -233 1448 z "},"៌":{"ha":0,"x_min":-488,"x_max":-21,"o":"m -330 1179 l -381 1144 q -444 1119 -418 1119 q -479 1137 -465 1119 q -488 1163 -488 1150 q -444 1221 -488 1191 l -380 1265 q -217 1436 -254 1352 q -180 1550 -180 1520 q -130 1617 -180 1617 q -79 1550 -79 1617 q -127 1393 -80 1500 q -186 1301 -148 1345 q -165 1299 -176 1300 q -35 1210 -81 1291 q -21 1168 -21 1186 q -47 1128 -21 1142 q -75 1119 -61 1119 q -121 1153 -100 1119 q -197 1211 -151 1204 q -216 1212 -206 1212 q -301 1192 -255 1212 l -330 1179 z "},"៍":{"ha":0,"x_min":-454,"x_max":122,"o":"m -203 1238 q -197 1246 -203 1238 q -146 1255 -190 1255 q -123 1236 -123 1255 q -142 1187 -123 1219 q -292 1119 -183 1119 q -454 1272 -454 1119 q -285 1438 -454 1424 q -267 1439 -276 1439 q -194 1422 -232 1439 q -22 1591 -66 1519 q 20 1729 20 1662 q 71 1797 20 1797 q 122 1729 122 1797 q 60 1532 122 1626 q -128 1343 -1 1438 q -185 1321 -157 1321 q -210 1326 -198 1321 q -267 1337 -240 1337 q -285 1336 -276 1337 q -353 1272 -353 1329 q -292 1221 -353 1221 q -203 1238 -217 1221 z "},"៎":{"ha":0,"x_min":-494,"x_max":-127,"o":"m -275 1268 q -311 1152 -298 1173 q -355 1119 -330 1119 q -386 1154 -380 1119 q -387 1163 -387 1157 q -373 1268 -387 1191 l -420 1268 q -494 1319 -494 1268 q -420 1370 -494 1370 l -354 1370 q -347 1404 -351 1387 q -345 1420 -345 1413 q -351 1436 -345 1432 q -361 1467 -361 1442 q -342 1511 -361 1497 q -289 1526 -325 1526 q -240 1501 -253 1526 q -233 1466 -233 1487 q -239 1424 -233 1448 q -250 1370 -245 1396 l -200 1370 q -127 1319 -127 1370 q -200 1268 -127 1268 l -275 1268 z "},"៏":{"ha":0,"x_min":-549,"x_max":-83,"o":"m -231 1119 q -321 1179 -281 1119 q -397 1119 -361 1119 q -549 1307 -518 1167 l -541 1352 q -362 1457 -524 1402 q -185 1586 -201 1512 q -134 1638 -173 1638 q -119 1637 -127 1638 q -83 1590 -83 1630 q -90 1552 -83 1574 q -288 1399 -128 1453 q -448 1299 -448 1345 q -440 1277 -444 1287 q -429 1258 -435 1267 q -412 1240 -422 1249 q -388 1221 -402 1231 q -313 1287 -361 1233 q -231 1214 -271 1214 q -199 1235 -199 1214 q -224 1290 -199 1268 q -239 1316 -239 1303 q -233 1334 -239 1325 q -176 1356 -218 1356 q -116 1242 -116 1322 q -231 1119 -136 1119 z "},"័":{"ha":0,"x_min":-454,"x_max":210,"o":"m -292 1378 q -291 1392 -291 1386 q -304 1410 -291 1410 q -337 1382 -322 1410 q -353 1309 -353 1354 q -312 1242 -353 1263 q -197 1221 -272 1221 q -41 1308 -103 1221 q 72 1548 20 1394 q 108 1711 108 1648 q 159 1774 108 1774 q 210 1698 210 1774 q 161 1495 210 1622 q 18 1217 96 1315 q -197 1119 -62 1119 q -373 1163 -292 1119 q -454 1309 -454 1207 q -409 1448 -454 1383 q -300 1512 -364 1512 q -185 1430 -185 1512 q -186 1409 -185 1419 q -248 1346 -197 1346 q -293 1371 -293 1346 q -292 1378 -293 1375 z "},"៑":{"ha":0,"x_min":-590,"x_max":20,"o":"m -47 1221 q 20 1170 20 1221 q -47 1119 20 1119 l -522 1119 q -590 1170 -590 1119 q -522 1221 -590 1221 l -47 1221 z "},"្":{"ha":0,"x_min":-576,"x_max":-305,"o":"m -305 -305 l -407 -305 l -407 -407 l -475 -407 l -475 -305 l -576 -305 l -576 -237 l -475 -237 l -475 -136 l -407 -136 l -407 -237 l -305 -237 l -305 -305 z "},"៓":{"ha":0,"x_min":-590,"x_max":-184,"o":"m -509 1289 q -478 1225 -509 1246 q -387 1204 -448 1204 q -295 1225 -326 1204 q -264 1289 -264 1246 q -295 1352 -264 1331 q -387 1373 -326 1373 q -478 1352 -448 1373 q -509 1289 -509 1331 m -184 1289 q -235 1162 -184 1204 q -387 1119 -285 1119 q -538 1162 -488 1119 q -590 1289 -590 1204 q -538 1416 -590 1373 q -387 1458 -488 1458 q -235 1416 -285 1458 q -184 1289 -184 1373 z "},"។":{"ha":908,"x_min":203,"x_max":905,"o":"m 689 781 q 373 678 503 678 q 203 848 203 678 q 373 1017 203 1017 q 441 966 441 1017 q 373 916 441 916 q 305 848 305 916 q 373 780 305 780 q 642 870 473 780 l 801 956 q 865 1017 814 1017 q 905 974 905 1017 q 901 943 905 960 l 741 183 q 475 0 701 0 q 407 51 407 0 q 475 102 407 102 q 641 204 619 102 l 745 697 l 773 827 l 689 781 z "},"៕":{"ha":1145,"x_min":203,"x_max":1143,"o":"m 689 781 q 373 678 503 678 q 203 848 203 678 q 373 1017 203 1017 q 441 966 441 1017 q 373 916 441 916 q 305 848 305 916 q 373 780 305 780 q 642 870 473 780 l 801 956 q 865 1017 814 1017 q 905 974 905 1017 q 901 943 905 960 l 741 183 q 475 0 701 0 q 407 51 407 0 q 475 102 407 102 q 641 204 619 102 l 773 827 l 689 781 m 1038 956 q 1103 1017 1051 1017 q 1143 974 1143 1017 q 1139 943 1143 960 l 978 183 q 746 0 939 0 q 878 204 857 102 l 1038 956 z "},"៖":{"ha":793,"x_min":250,"x_max":760,"o":"m 296 43 q 250 170 250 85 q 296 297 250 255 q 436 340 343 340 q 576 297 530 340 q 623 170 623 255 q 576 43 623 85 q 436 0 530 0 q 296 43 343 0 m 500 112 q 521 170 521 132 q 500 228 521 209 q 436 247 479 247 q 373 228 394 247 q 351 170 351 209 q 373 112 351 132 q 436 93 394 93 q 500 112 479 93 m 433 721 q 387 848 387 763 q 433 975 387 932 q 573 1017 480 1017 q 713 975 667 1017 q 760 848 760 932 q 713 721 760 763 q 573 678 667 678 q 433 721 480 678 m 637 790 q 658 848 658 810 q 637 905 658 886 q 573 925 616 925 q 510 905 531 925 q 488 848 488 886 q 510 790 488 810 q 573 770 531 770 q 637 790 616 770 m 250 509 q 313 559 250 559 l 696 559 q 760 509 760 559 q 696 458 760 458 l 313 458 q 250 509 250 458 z "},"ៗ":{"ha":913,"x_min":203,"x_max":877,"o":"m 766 183 q 500 0 726 0 q 432 51 432 0 q 500 102 432 102 q 666 204 644 102 l 773 706 q 776 737 776 721 q 771 781 776 758 q 712 919 758 842 q 531 756 555 756 q 422 916 507 756 q 309 748 330 835 q 307 713 307 729 q 315 671 307 688 q 345 644 328 644 q 372 663 362 644 q 374 669 374 666 q 332 710 374 687 q 402 746 370 746 q 446 729 425 746 q 473 673 473 705 q 456 615 473 647 q 345 543 417 543 q 232 606 273 543 q 203 707 203 648 q 210 766 203 734 q 357 985 236 888 q 440 1017 397 1017 q 550 877 483 1017 q 720 1017 670 1017 q 800 965 768 1017 q 870 801 854 878 q 877 737 877 768 q 872 686 877 711 l 766 183 z "},"៘":{"ha":3417,"x_min":203,"x_max":3415,"o":"m 689 781 q 373 678 503 678 q 203 848 203 678 q 373 1017 203 1017 q 441 966 441 1017 q 373 916 441 916 q 305 848 305 916 q 373 780 305 780 q 642 870 473 780 l 801 956 q 865 1017 814 1017 q 905 974 905 1017 q 901 943 905 960 l 741 183 q 475 0 701 0 q 407 51 407 0 q 475 102 407 102 q 641 204 619 102 l 745 697 l 773 827 l 689 781 m 2007 0 q 1746 64 1817 0 q 1694 190 1694 111 q 1702 254 1694 220 l 1794 691 q 1803 762 1803 730 q 1801 793 1803 779 q 1768 863 1794 837 q 1600 916 1716 916 q 1440 884 1487 916 q 1382 800 1393 852 l 1283 338 q 1310 339 1296 339 q 1379 301 1347 339 q 1398 242 1398 277 q 1392 199 1398 222 q 1308 68 1374 136 q 1206 0 1242 0 q 1146 34 1171 0 q 1131 89 1131 55 q 1137 136 1131 110 l 1281 814 q 1379 966 1303 916 q 1600 1017 1455 1017 q 1729 996 1656 1017 q 1845 930 1803 974 q 1901 821 1889 886 q 1906 766 1906 795 q 1894 668 1906 722 l 1802 237 q 1799 208 1799 222 q 1834 136 1799 162 q 2007 102 1881 102 q 2171 140 2115 102 q 2243 254 2226 178 l 2323 633 q 2325 649 2325 641 q 2290 723 2325 686 q 2157 774 2247 768 q 2317 900 2256 832 q 2405 1017 2377 968 q 2503 910 2454 944 q 2586 881 2544 881 q 2599 882 2593 881 l 2566 859 q 2480 833 2531 835 l 2474 833 q 2393 872 2427 833 l 2332 806 q 2412 718 2389 766 q 2426 650 2426 686 q 2422 610 2426 631 l 2342 237 q 2237 60 2317 119 q 2007 0 2157 0 m 3198 781 q 2882 678 3012 678 q 2713 848 2713 678 q 2882 1017 2713 1017 q 2950 966 2950 1017 q 2882 916 2950 916 q 2814 848 2814 916 q 2882 780 2814 780 q 3151 870 2983 780 l 3310 956 q 3375 1017 3323 1017 q 3415 974 3415 1017 q 3411 943 3415 960 l 3250 183 q 2984 0 3210 0 q 2916 51 2916 0 q 2984 102 2916 102 q 3150 204 3128 102 l 3255 697 l 3282 827 l 3198 781 z "},"៙":{"ha":1051,"x_min":229,"x_max":907,"o":"m 469 8 q 258 175 312 42 q 229 341 229 244 q 253 540 229 429 q 406 871 302 772 q 591 945 484 945 q 667 937 627 945 q 878 771 824 904 q 907 605 907 702 q 883 406 907 517 q 730 75 833 174 q 544 0 652 0 q 469 8 508 0 m 650 859 q 597 865 623 865 q 452 801 513 865 q 332 523 373 717 q 310 345 310 423 q 329 220 310 273 q 486 86 368 111 q 538 80 513 80 q 683 144 622 80 q 804 422 763 229 q 825 600 825 523 q 807 726 825 673 q 650 859 768 834 m 502 163 q 401 266 423 180 q 391 347 391 301 q 411 506 391 414 q 499 730 444 661 q 604 786 544 786 q 633 783 618 786 q 735 680 713 766 q 745 598 745 644 q 725 439 745 531 q 637 216 692 285 q 531 159 592 159 q 502 163 517 159 m 617 705 q 606 706 612 706 q 546 660 573 706 q 489 490 513 606 q 470 343 470 401 q 472 311 470 326 q 519 241 479 249 q 530 239 524 239 q 590 286 562 239 q 647 456 622 340 q 666 602 666 545 q 664 635 666 620 q 617 705 656 696 z "},"៚":{"ha":2374,"x_min":136,"x_max":2272,"o":"m 1947 365 q 1936 347 1936 353 q 1937 344 1936 345 q 1945 338 1940 338 q 1954 342 1949 338 q 1954 345 1954 343 q 1947 365 1954 350 m 1046 664 q 1088 753 1088 728 q 1083 767 1088 762 q 1051 783 1067 783 q 1015 760 1032 783 q 1010 744 1010 753 q 1038 676 1010 720 q 1046 664 1042 670 m 1235 298 q 1205 243 1205 260 q 1208 235 1205 238 q 1236 220 1221 220 q 1261 231 1248 220 q 1265 239 1265 233 q 1235 298 1265 257 m 1466 690 q 1493 737 1493 724 q 1491 742 1493 740 q 1469 755 1481 755 q 1449 747 1459 755 q 1445 739 1445 745 q 1466 690 1445 724 m 1619 317 q 1605 298 1605 302 q 1606 296 1605 297 q 1617 291 1611 291 q 1628 294 1622 291 q 1629 297 1629 295 q 1619 317 1629 302 m 1853 664 q 1870 685 1870 681 q 1869 686 1870 686 q 1862 689 1866 689 q 1849 683 1855 689 q 1847 680 1847 682 q 1853 664 1847 674 m 1971 500 q 2030 521 1999 513 q 2207 543 2108 543 q 2272 492 2272 543 q 2205 441 2272 441 l 2123 441 q 2020 418 2065 441 q 2040 367 2034 391 q 2045 331 2045 347 q 2013 264 2045 289 q 1940 235 1974 235 q 1929 236 1934 235 q 1854 284 1889 241 q 1828 351 1828 317 q 1830 371 1828 361 q 1890 452 1840 412 q 1868 484 1880 467 q 1846 513 1856 498 q 1777 454 1815 484 q 1687 379 1724 410 q 1708 331 1700 353 q 1719 275 1719 300 q 1691 215 1719 237 q 1616 186 1651 186 q 1604 186 1610 186 q 1527 238 1563 193 q 1512 285 1512 258 q 1535 358 1512 317 q 1563 398 1547 377 q 1505 475 1539 431 l 1458 533 q 1382 452 1425 495 q 1295 366 1331 404 q 1340 285 1324 321 q 1356 219 1356 248 q 1324 155 1356 178 q 1232 117 1276 117 q 1223 118 1227 117 q 1132 172 1175 122 q 1111 231 1111 197 q 1133 311 1111 266 q 1172 376 1147 341 q 1105 449 1143 408 q 1055 503 1078 477 q 947 362 1010 438 q 663 91 795 181 q 417 0 530 0 q 206 127 277 0 q 136 509 136 254 q 216 890 136 763 q 458 1017 297 1017 q 700 950 619 1017 q 780 749 780 883 q 722 528 780 611 q 545 414 663 444 q 519 410 531 410 q 475 446 485 410 q 472 464 472 456 q 519 511 472 498 q 638 590 598 532 q 678 744 678 648 q 623 872 678 829 q 458 916 568 916 q 293 814 348 916 q 238 513 238 713 l 238 509 q 283 203 238 305 q 418 102 328 102 q 617 180 507 102 q 858 416 727 259 q 991 585 939 514 q 937 682 955 637 q 920 759 920 724 q 949 836 920 804 q 1049 895 999 894 l 1050 895 q 1149 838 1099 895 q 1174 766 1174 810 q 1148 663 1174 722 q 1108 585 1133 627 q 1173 514 1137 552 q 1231 449 1204 480 q 1306 528 1264 486 q 1400 619 1361 579 q 1363 704 1378 659 q 1352 762 1352 736 q 1385 833 1352 808 q 1472 867 1432 867 q 1482 867 1477 867 q 1567 812 1528 861 q 1584 758 1584 789 q 1559 673 1584 722 q 1521 611 1544 644 q 1576 541 1545 580 q 1630 470 1606 504 q 1701 534 1661 500 q 1786 604 1751 574 q 1763 661 1770 635 q 1756 701 1756 682 q 1788 764 1756 741 q 1861 793 1826 793 q 1873 792 1867 793 q 1950 741 1914 787 q 1967 694 1967 721 q 1943 624 1967 663 q 1910 579 1930 603 q 1942 538 1925 561 q 1971 500 1958 519 z "},"៛":{"ha":576,"x_min":182,"x_max":677,"o":"m 471 475 l 391 102 q 355 17 377 33 q 311 0 334 0 q 218 100 260 0 q 182 241 182 182 q 184 264 182 253 q 237 351 193 328 q 286 364 264 364 q 315 358 302 364 q 340 346 328 352 l 367 475 l 271 475 q 203 526 203 475 q 271 576 203 576 l 389 576 l 401 633 q 403 649 403 641 q 368 723 403 686 q 235 774 326 768 q 395 900 334 832 q 484 1017 455 968 q 581 910 532 944 q 664 881 623 881 q 677 882 671 881 l 644 859 q 558 833 609 835 l 552 833 q 471 872 505 833 l 410 806 q 490 718 467 766 q 504 650 504 686 q 500 610 504 631 l 492 576 l 543 576 q 610 526 610 576 q 543 475 610 475 l 471 475 z "},"០":{"ha":1036,"x_min":220,"x_max":918,"o":"m 485 11 q 220 332 220 67 q 237 479 220 398 q 559 817 309 817 q 654 806 604 817 q 918 486 918 750 q 901 338 918 419 q 579 0 829 0 q 485 11 535 0 m 506 110 q 568 103 538 103 q 802 359 747 103 q 815 475 815 423 q 633 707 815 669 q 571 714 600 714 q 337 458 392 714 q 323 342 323 394 q 506 110 323 149 z "},"១":{"ha":1086,"x_min":219,"x_max":983,"o":"m 494 328 q 422 369 474 359 q 366 420 366 381 q 368 433 366 426 q 417 472 376 472 q 444 469 429 472 q 583 389 544 448 q 608 296 608 350 q 602 237 608 268 q 519 89 578 131 q 423 60 479 60 q 371 66 399 60 q 259 141 296 82 q 219 309 219 202 q 241 498 219 391 q 375 734 275 654 q 610 814 476 814 q 926 688 809 814 q 983 516 983 620 q 970 413 983 469 q 833 115 934 249 q 488 -151 732 -18 q 419 -171 446 -171 q 378 -148 390 -171 q 373 -127 373 -138 q 435 -65 373 -94 q 753 176 670 65 q 869 431 837 286 q 877 498 877 467 q 838 617 877 568 q 610 712 745 712 q 441 652 517 712 q 342 475 367 593 l 342 474 q 320 306 320 374 q 334 219 320 252 q 393 165 352 175 q 413 163 404 163 q 461 180 441 163 q 503 258 490 203 q 505 284 505 272 q 494 328 505 310 z "},"២":{"ha":1154,"x_min":270,"x_max":1081,"o":"m 1008 678 q 1069 661 1051 678 q 1081 628 1081 649 q 1079 609 1081 619 l 1000 237 q 883 60 975 119 q 598 0 791 0 q 369 59 438 0 q 279 203 300 117 q 270 281 270 243 q 283 371 270 327 l 340 642 q 370 903 370 785 q 324 1158 370 1049 q 312 1207 312 1187 q 338 1248 312 1238 q 356 1251 348 1251 q 412 1198 389 1251 q 471 895 471 1068 q 440 621 471 769 l 382 350 q 374 283 374 315 q 425 140 374 201 q 598 102 465 102 q 822 142 760 102 q 899 252 884 182 l 960 536 l 790 433 l 644 553 l 450 414 l 467 483 l 645 678 l 800 551 l 1008 678 z "},"៣":{"ha":1525,"x_min":227,"x_max":1430,"o":"m 330 102 q 429 148 390 102 q 478 239 468 193 q 481 266 481 254 q 469 294 481 288 q 420 305 450 305 q 361 252 372 305 l 330 102 m 814 495 q 821 558 821 530 q 819 590 821 575 q 786 659 812 633 q 604 712 734 712 q 491 681 538 712 q 433 596 444 649 l 393 406 q 420 407 406 407 q 531 381 491 407 q 582 272 582 347 q 578 225 582 250 q 490 69 563 138 q 330 0 416 0 q 242 34 267 0 q 227 90 227 55 q 233 136 227 111 l 332 610 q 430 763 354 712 q 604 814 507 814 q 747 792 674 814 q 863 726 821 770 q 880 707 872 718 q 937 763 903 741 q 1111 814 1013 814 q 1254 792 1181 814 q 1370 726 1327 770 q 1426 617 1413 683 q 1430 563 1430 591 q 1419 465 1430 518 l 1322 -1 q 1099 -203 1278 -203 q 949 -68 985 -203 q 1099 -102 1017 -102 q 1222 28 1187 -102 l 1320 488 q 1328 557 1328 526 q 1325 590 1328 575 q 1293 659 1319 633 q 1111 712 1241 712 q 998 681 1045 712 q 940 596 951 649 l 829 68 q 766 0 814 0 q 723 47 723 0 q 729 89 723 65 l 814 495 z "},"៤":{"ha":1115,"x_min":254,"x_max":1059,"o":"m 1037 642 q 1059 577 1059 617 q 1056 543 1059 562 q 1009 505 1048 505 q 996 505 1003 505 q 951 537 951 511 q 951 544 951 541 q 952 551 952 548 q 947 567 952 561 q 916 576 938 576 q 886 566 899 576 q 854 511 867 550 q 851 494 851 503 q 861 456 851 476 q 970 352 886 410 q 1002 292 1002 330 q 994 251 1002 273 l 977 199 q 842 35 940 84 q 657 0 773 0 q 553 6 609 0 q 331 89 394 23 q 257 242 269 154 q 254 286 254 264 q 279 408 254 350 l 365 671 q 427 1015 427 864 q 403 1185 427 1108 q 395 1228 395 1210 q 427 1274 395 1265 q 440 1276 434 1276 q 494 1216 477 1276 q 526 1004 526 1120 q 462 640 526 841 l 375 377 q 359 284 359 328 q 395 163 359 218 q 564 107 431 121 q 662 102 618 102 q 791 123 747 102 q 878 224 856 157 l 894 273 q 761 426 794 352 q 743 500 743 464 q 748 537 743 519 q 812 646 766 612 q 916 678 852 678 q 1037 642 1002 678 z "},"៥":{"ha":1115,"x_min":254,"x_max":1153,"o":"m 576 848 l 576 854 q 543 916 576 916 q 509 882 509 916 q 570 848 509 848 l 576 848 m 678 856 q 918 962 819 878 q 1051 1221 1051 1075 q 1102 1289 1051 1289 q 1153 1221 1153 1289 q 987 886 1153 1027 q 656 751 850 771 q 532 594 622 669 q 375 377 414 494 q 359 284 359 328 q 395 163 359 218 q 564 107 431 121 q 662 102 618 102 q 791 123 747 102 q 878 224 856 157 l 894 273 q 761 426 794 352 q 743 500 743 464 q 748 537 743 519 q 812 646 766 612 q 916 678 852 678 q 1037 642 1002 678 q 1059 577 1059 617 q 1056 543 1059 562 q 1009 505 1048 505 q 996 505 1003 505 q 951 537 951 511 q 951 544 951 541 q 952 551 952 548 q 947 567 952 561 q 916 576 938 576 q 886 566 899 576 q 854 511 867 550 q 851 494 851 503 q 861 456 851 476 q 970 352 886 410 q 1002 292 1002 330 q 994 251 1002 273 l 977 199 q 842 35 940 84 q 657 0 773 0 q 553 6 609 0 q 331 89 394 23 q 257 242 269 154 q 254 286 254 264 q 279 408 254 350 q 460 667 326 553 q 537 747 509 708 q 407 882 407 760 q 543 1017 407 1017 q 678 856 677 1017 z "},"៦":{"ha":1115,"x_min":254,"x_max":1043,"o":"m 310 73 q 254 209 254 123 q 262 277 254 241 q 509 441 297 441 q 678 271 678 441 q 627 203 678 203 q 576 271 576 203 q 509 339 576 339 q 361 256 379 339 q 358 224 358 239 q 378 162 358 187 q 590 102 427 102 q 797 172 715 102 q 928 427 891 253 q 939 521 939 478 q 891 656 939 609 q 712 713 834 713 q 433 590 459 713 q 386 544 423 544 q 370 546 378 544 q 330 587 330 554 q 334 609 330 597 q 362 682 342 649 q 408 952 408 829 q 406 1002 408 978 q 356 1185 398 1103 q 338 1240 338 1219 q 361 1274 338 1265 q 376 1278 368 1278 q 447 1216 410 1278 q 504 1025 492 1128 q 509 944 509 985 q 492 782 509 867 q 712 814 579 814 q 969 737 886 814 q 1043 538 1043 669 q 1028 407 1043 479 q 864 92 983 193 q 590 0 757 0 q 310 73 391 0 z "},"៧":{"ha":1356,"x_min":227,"x_max":1311,"o":"m 330 102 q 443 165 370 102 q 513 273 495 210 q 516 300 516 288 q 504 328 516 321 q 441 339 485 339 q 368 286 380 339 l 330 102 m 963 0 q 867 85 867 0 q 872 126 867 104 l 977 620 q 1003 764 1002 732 q 960 872 1000 823 q 899 916 920 916 q 726 780 878 916 q 610 916 640 916 q 555 892 579 913 l 506 850 q 453 682 481 829 l 400 431 q 441 441 420 441 q 542 424 512 441 q 616 296 616 380 q 612 259 616 279 q 503 86 590 155 q 330 0 396 0 q 242 34 267 0 q 227 90 227 55 q 233 136 227 111 l 352 703 q 443 916 387 868 l 511 971 q 610 1017 566 1017 q 710 961 678 1017 l 744 909 q 905 1017 852 1017 q 1024 943 958 1017 q 1101 784 1090 863 q 1102 763 1102 774 q 1078 604 1102 709 l 971 102 q 1097 221 1072 102 l 1201 713 q 1210 799 1210 753 q 1109 1156 1210 952 q 1078 1241 1078 1219 q 1084 1253 1078 1250 q 1087 1253 1085 1253 q 1162 1173 1106 1253 q 1311 777 1311 959 q 1302 688 1311 731 l 1196 205 q 963 0 1153 0 z "},"៨":{"ha":1153,"x_min":252,"x_max":1144,"o":"m 915 472 q 893 493 909 492 l 888 493 q 859 465 859 493 q 861 447 859 456 q 863 436 863 441 q 840 414 863 414 q 800 424 825 414 q 753 479 753 441 q 766 526 753 500 q 863 589 798 589 q 888 587 874 589 q 991 526 960 578 q 1017 417 1017 484 q 1008 330 1017 378 l 986 237 q 894 59 961 119 q 756 0 827 0 q 631 51 677 0 q 604 85 615 68 q 578 60 591 71 q 435 0 499 0 q 307 51 343 0 q 258 149 271 102 q 252 199 252 172 q 258 254 252 225 l 317 534 q 436 744 346 674 q 678 814 527 814 q 957 760 852 814 q 1039 967 1021 879 q 1046 1044 1046 1005 q 1034 1144 1046 1094 q 1021 1215 1021 1190 q 1031 1244 1021 1238 q 1036 1245 1034 1245 q 1109 1162 1059 1245 q 1144 1019 1144 1101 q 1142 977 1144 999 q 1025 710 1131 869 q 947 666 983 666 q 916 674 931 666 q 678 712 827 712 q 505 664 570 712 q 417 515 439 614 l 358 237 q 353 189 353 210 q 364 137 353 158 q 435 102 383 102 q 517 142 469 102 q 571 252 556 182 l 587 329 q 656 408 604 408 q 695 361 695 408 q 690 323 695 345 l 672 237 q 667 193 667 213 q 682 137 667 159 q 756 102 704 102 q 833 142 796 102 q 885 252 870 182 l 908 353 q 919 439 919 406 q 915 472 919 459 z "},"៩":{"ha":1152,"x_min":237,"x_max":1314,"o":"m 363 128 q 441 102 389 102 q 518 133 500 102 q 523 149 523 142 q 492 170 523 165 q 458 204 458 175 q 461 224 458 213 q 500 259 471 259 q 526 254 512 259 q 618 153 618 216 q 605 101 618 130 q 441 0 555 0 q 288 52 338 0 q 237 203 237 102 q 304 406 237 338 q 509 475 372 475 l 516 475 q 477 599 477 538 q 491 671 477 635 q 678 814 543 814 q 958 648 810 814 q 1044 970 974 823 q 1227 1225 1112 1110 q 1280 1255 1257 1255 q 1303 1244 1293 1255 q 1314 1219 1314 1234 q 1287 1168 1314 1198 q 1134 940 1190 1067 q 1059 642 1074 805 q 995 545 1053 568 q 960 538 977 538 q 893 570 923 538 q 678 712 762 712 q 587 634 613 712 q 581 601 581 618 q 666 449 581 534 l 692 418 q 945 213 808 353 q 966 175 966 195 q 953 140 966 159 q 917 119 937 119 q 877 138 899 119 q 509 373 652 373 q 380 330 423 373 q 339 203 339 288 q 363 128 339 154 z "},"​":{"ha":0,"x_min":0,"x_max":0,"o":""},"◌":{"ha":882,"x_min":203,"x_max":746,"o":"m 647 170 q 680 141 680 170 q 649 114 680 114 l 647 114 q 614 142 614 115 q 647 170 614 170 m 693 275 q 727 247 727 275 q 693 219 727 219 q 660 247 660 220 q 693 275 660 275 m 566 77 q 600 49 600 77 q 566 21 600 21 q 533 50 533 22 q 566 77 533 77 m 418 56 q 452 28 452 56 q 420 1 452 1 l 418 1 q 385 28 385 1 q 418 56 385 56 m 320 140 q 354 111 354 140 q 322 84 354 84 l 320 84 q 287 112 287 85 q 320 140 287 140 m 265 244 q 299 216 299 244 q 267 189 299 189 l 265 189 q 232 216 232 189 q 265 244 232 244 m 239 353 q 273 325 273 353 q 241 298 273 298 l 239 298 q 206 326 206 298 q 239 353 206 353 m 237 463 q 271 435 271 463 q 239 408 271 408 l 237 408 q 203 435 203 408 q 237 463 203 463 m 253 573 q 287 545 287 573 q 255 517 287 517 l 253 517 q 220 545 220 518 q 253 573 220 573 m 296 680 q 329 652 329 680 q 296 624 329 624 q 262 652 262 625 q 296 680 262 680 m 374 777 q 407 748 407 777 q 376 721 407 721 l 374 721 q 340 749 340 722 q 374 777 340 777 m 500 812 q 534 783 534 812 q 503 756 534 756 l 500 756 q 467 784 467 757 q 500 812 467 812 m 611 741 q 645 713 645 741 q 613 686 645 686 l 611 686 q 578 713 578 686 q 611 741 578 741 m 678 628 q 712 600 712 628 q 680 572 712 572 l 678 572 q 645 600 645 573 q 678 628 645 628 m 707 519 q 741 491 741 519 q 707 463 741 463 q 673 492 673 464 q 707 519 673 519 m 712 393 q 746 364 746 393 q 714 337 746 337 l 712 337 q 679 365 679 338 q 712 393 679 393 z "}}}
